<?xml version="1.0" encoding="utf-8"?>
<!DOCTYPE svg PUBLIC "-//W3C//DTD SVG 1.1//EN" "http://www.w3.org/Graphics/SVG/1.1/DTD/svg11.dtd">
<svg version="1.1" xmlns="http://www.w3.org/2000/svg" xmlns:xlink="http://www.w3.org/1999/xlink" x="0px" y="0px" width="32px" height="32px" viewBox="0 0 32 32" enable-background="new 0 0 32 32" xml:space="preserve">
  <symbol id="shopping-cart" viewBox="0 0 50.613 50.613">
  			<path d="M49.569,11.145H20.055c-0.961,0-1.508,0.743-1.223,1.661l4.669,13.677c0.23,0.738,1.044,1.336,1.817,1.336h19.35
  				c0.773,0,1.586-0.598,1.814-1.336l4.069-14C50.783,11.744,50.344,11.145,49.569,11.145z"/>
  			<circle cx="22.724" cy="43.575" r="4.415"/>
  			<circle cx="41.406" cy="43.63" r="4.415"/>
  			<path d="M46.707,32.312H20.886L10.549,2.568H2.5c-1.381,0-2.5,1.119-2.5,2.5s1.119,2.5,2.5,2.5h4.493L17.33,37.312h29.377
  				c1.381,0,2.5-1.119,2.5-2.5S48.088,32.312,46.707,32.312z"/>
  </symbol>
  <symbol id="bar-chart" viewBox="0 0 512 512">
    <g>
    	<path d="M512,480v32H0V0h32v480H512z M228.906,177.719l130.719,32.656L404.875,135l41,24.625L448,32L336.406,93.938l41,24.625
    		l-33.031,55.063l-125.281-31.344L84.688,276.688l22.625,22.625L228.906,177.719z M192,448h64V217.469l-17.281-4.312L192,259.875
    		V448z M96,333.25V448h64V291.875l-52.688,52.688L96,333.25z M384,232v216h64V198.219l-32.156-19.281L384,232z M352,448V241.469
    		l-64-16V448H352z"/>
    </g>
  </symbol>
  <symbol id="transaction"  viewBox="0 0 489.2 489.2">
    <g>
      <path d="M365.55,485.6c2.4,2.4,5.5,3.6,8.7,3.6s6.3-1.2,8.7-3.6l94.5-94.5c4.8-4.8,4.8-12.5,0-17.3l-94.5-94.5
        c-4.8-4.8-12.5-4.8-17.3,0s-4.8,12.5,0,17.3l73.6,73.6H20.35c-6.8,0-12.3,5.5-12.3,12.3s5.5,12.3,12.3,12.3h418.8l-73.6,73.5
        C360.75,473.1,360.75,480.9,365.55,485.6z"/>
      <path d="M106.25,3.6l-94.5,94.5c-4.8,4.8-4.8,12.5,0,17.3l94.5,94.5c2.4,2.4,5.5,3.6,8.7,3.6s6.3-1.2,8.7-3.6
        c4.8-4.8,4.8-12.5,0-17.3L50.05,119h418.8c6.8,0,12.3-5.5,12.3-12.3s-5.5-12.3-12.3-12.3H49.95l73.6-73.5c4.8-4.8,4.8-12.5,0-17.3
        S110.95-1.2,106.25,3.6z"/>
    </g>
  </symbol>
  <symbol id="settings" viewBox="0 0 478.703 478.703">
    <g>
      <path d="M454.2,189.101l-33.6-5.7c-3.5-11.3-8-22.2-13.5-32.6l19.8-27.7c8.4-11.8,7.1-27.9-3.2-38.1l-29.8-29.8
        c-5.6-5.6-13-8.7-20.9-8.7c-6.2,0-12.1,1.9-17.1,5.5l-27.8,19.8c-10.8-5.7-22.1-10.4-33.8-13.9l-5.6-33.2
        c-2.4-14.3-14.7-24.7-29.2-24.7h-42.1c-14.5,0-26.8,10.4-29.2,24.7l-5.8,34c-11.2,3.5-22.1,8.1-32.5,13.7l-27.5-19.8
        c-5-3.6-11-5.5-17.2-5.5c-7.9,0-15.4,3.1-20.9,8.7l-29.9,29.8c-10.2,10.2-11.6,26.3-3.2,38.1l20,28.1
        c-5.5,10.5-9.9,21.4-13.3,32.7l-33.2,5.6c-14.3,2.4-24.7,14.7-24.7,29.2v42.1c0,14.5,10.4,26.8,24.7,29.2l34,5.8
        c3.5,11.2,8.1,22.1,13.7,32.5l-19.7,27.4c-8.4,11.8-7.1,27.9,3.2,38.1l29.8,29.8c5.6,5.6,13,8.7,20.9,8.7c6.2,0,12.1-1.9,17.1-5.5
        l28.1-20c10.1,5.3,20.7,9.6,31.6,13l5.6,33.6c2.4,14.3,14.7,24.7,29.2,24.7h42.2c14.5,0,26.8-10.4,29.2-24.7l5.7-33.6
        c11.3-3.5,22.2-8,32.6-13.5l27.7,19.8c5,3.6,11,5.5,17.2,5.5l0,0c7.9,0,15.3-3.1,20.9-8.7l29.8-29.8c10.2-10.2,11.6-26.3,3.2-38.1
        l-19.8-27.8c5.5-10.5,10.1-21.4,13.5-32.6l33.6-5.6c14.3-2.4,24.7-14.7,24.7-29.2v-42.1
        C478.9,203.801,468.5,191.501,454.2,189.101z M451.9,260.401c0,1.3-0.9,2.4-2.2,2.6l-42,7c-5.3,0.9-9.5,4.8-10.8,9.9
        c-3.8,14.7-9.6,28.8-17.4,41.9c-2.7,4.6-2.5,10.3,0.6,14.7l24.7,34.8c0.7,1,0.6,2.5-0.3,3.4l-29.8,29.8c-0.7,0.7-1.4,0.8-1.9,0.8
        c-0.6,0-1.1-0.2-1.5-0.5l-34.7-24.7c-4.3-3.1-10.1-3.3-14.7-0.6c-13.1,7.8-27.2,13.6-41.9,17.4c-5.2,1.3-9.1,5.6-9.9,10.8l-7.1,42
        c-0.2,1.3-1.3,2.2-2.6,2.2h-42.1c-1.3,0-2.4-0.9-2.6-2.2l-7-42c-0.9-5.3-4.8-9.5-9.9-10.8c-14.3-3.7-28.1-9.4-41-16.8
        c-2.1-1.2-4.5-1.8-6.8-1.8c-2.7,0-5.5,0.8-7.8,2.5l-35,24.9c-0.5,0.3-1,0.5-1.5,0.5c-0.4,0-1.2-0.1-1.9-0.8l-29.8-29.8
        c-0.9-0.9-1-2.3-0.3-3.4l24.6-34.5c3.1-4.4,3.3-10.2,0.6-14.8c-7.8-13-13.8-27.1-17.6-41.8c-1.4-5.1-5.6-9-10.8-9.9l-42.3-7.2
        c-1.3-0.2-2.2-1.3-2.2-2.6v-42.1c0-1.3,0.9-2.4,2.2-2.6l41.7-7c5.3-0.9,9.6-4.8,10.9-10c3.7-14.7,9.4-28.9,17.1-42
        c2.7-4.6,2.4-10.3-0.7-14.6l-24.9-35c-0.7-1-0.6-2.5,0.3-3.4l29.8-29.8c0.7-0.7,1.4-0.8,1.9-0.8c0.6,0,1.1,0.2,1.5,0.5l34.5,24.6
        c4.4,3.1,10.2,3.3,14.8,0.6c13-7.8,27.1-13.8,41.8-17.6c5.1-1.4,9-5.6,9.9-10.8l7.2-42.3c0.2-1.3,1.3-2.2,2.6-2.2h42.1
        c1.3,0,2.4,0.9,2.6,2.2l7,41.7c0.9,5.3,4.8,9.6,10,10.9c15.1,3.8,29.5,9.7,42.9,17.6c4.6,2.7,10.3,2.5,14.7-0.6l34.5-24.8
        c0.5-0.3,1-0.5,1.5-0.5c0.4,0,1.2,0.1,1.9,0.8l29.8,29.8c0.9,0.9,1,2.3,0.3,3.4l-24.7,34.7c-3.1,4.3-3.3,10.1-0.6,14.7
        c7.8,13.1,13.6,27.2,17.4,41.9c1.3,5.2,5.6,9.1,10.8,9.9l42,7.1c1.3,0.2,2.2,1.3,2.2,2.6v42.1H451.9z"/>
      <path d="M239.4,136.001c-57,0-103.3,46.3-103.3,103.3s46.3,103.3,103.3,103.3s103.3-46.3,103.3-103.3S296.4,136.001,239.4,136.001
        z M239.4,315.601c-42.1,0-76.3-34.2-76.3-76.3s34.2-76.3,76.3-76.3s76.3,34.2,76.3,76.3S281.5,315.601,239.4,315.601z"/>
    </g>
  </symbol>
  <symbol id="home"  viewBox="0 0 512 512" >
	  <g>
		<g>
			<path d="M506.555,208.064L263.859,30.367c-4.68-3.426-11.038-3.426-15.716,0L5.445,208.064
				c-5.928,4.341-7.216,12.665-2.875,18.593s12.666,7.214,18.593,2.875L256,57.588l234.837,171.943c2.368,1.735,5.12,2.57,7.848,2.57
				c4.096,0,8.138-1.885,10.744-5.445C513.771,220.729,512.483,212.405,506.555,208.064z"/>
		</g>
		</g>
		<g>
			<g>
				<path d="M442.246,232.543c-7.346,0-13.303,5.956-13.303,13.303v211.749H322.521V342.009c0-36.68-29.842-66.52-66.52-66.52
					s-66.52,29.842-66.52,66.52v115.587H83.058V245.847c0-7.347-5.957-13.303-13.303-13.303s-13.303,5.956-13.303,13.303v225.053
					c0,7.347,5.957,13.303,13.303,13.303h133.029c6.996,0,12.721-5.405,13.251-12.267c0.032-0.311,0.052-0.651,0.052-1.036v-128.89
					c0-22.009,17.905-39.914,39.914-39.914s39.914,17.906,39.914,39.914v128.89c0,0.383,0.02,0.717,0.052,1.024
					c0.524,6.867,6.251,12.279,13.251,12.279h133.029c7.347,0,13.303-5.956,13.303-13.303V245.847
					C455.549,238.499,449.593,232.543,442.246,232.543z"/>
			</g>
		</g>
  </symbol>
  <symbol id="plus" viewBox="0 0 44 44">
	  <g>
	  <path style="fill:#333" d="M22,44c-3.309,0-6-2.665-6-5.941V28H5.941C2.665,28,0,25.309,0,22s2.665-6,5.941-6H16V5.941C16,2.665,18.691,0,22,0
		s6,2.665,6,5.941V16h10.059C41.335,16,44,18.691,44,22s-2.665,6-5.941,6H28v10.059C28,41.335,25.309,44,22,44z M5.941,18
		C3.805,18,2,19.832,2,22s1.805,4,3.941,4H18v12.059C18,40.195,19.832,42,22,42s4-1.805,4-3.941V26h12.059C40.195,26,42,24.168,42,22
		s-1.805-4-3.941-4H26V5.941C26,3.805,24.168,2,22,2s-4,1.805-4,3.941V18H5.941z"/>

	  </g>
  </symbol>

  <symbol id="edit" viewBox="0 0 528.899 528.899">
	  <g>
  <path d="M328.883,89.125l107.59,107.589l-272.34,272.34L56.604,361.465L328.883,89.125z M518.113,63.177l-47.981-47.981
		c-18.543-18.543-48.653-18.543-67.259,0l-45.961,45.961l107.59,107.59l53.611-53.611
		C532.495,100.753,532.495,77.559,518.113,63.177z M0.3,512.69c-1.958,8.812,5.998,16.708,14.811,14.565l119.891-29.069
		L27.473,390.597L0.3,512.69z"/>
	  </g>
   </symbol>

   <symbol id="delete" viewBox="0 0 348.333 348.334">
	  <g>
	  	<path d="M336.559,68.611L231.016,174.165l105.543,105.549c15.699,15.705,15.699,41.145,0,56.85   c-7.844,7.844-18.128,11.769-28.407,11.769c-10.296,0-20.581-3.919-28.419-11.769L174.167,231.003L68.609,336.563   c-7.843,7.844-18.128,11.769-28.416,11.769c-10.285,0-20.563-3.919-28.413-11.769c-15.699-15.698-15.699-41.139,0-56.85   l105.54-105.549L11.774,68.611c-15.699-15.699-15.699-41.145,0-56.844c15.696-15.687,41.127-15.687,56.829,0l105.563,105.554   L279.721,11.767c15.705-15.687,41.139-15.687,56.832,0C352.258,27.466,352.258,52.912,336.559,68.611z" fill="#D80027"/>
	  </g>
  </symbol>

  <symbol id="search"  viewBox="0 0 451 451">
  <g>
	<path d="M447.05,428l-109.6-109.6c29.4-33.8,47.2-77.9,47.2-126.1C384.65,86.2,298.35,0,192.35,0C86.25,0,0.05,86.3,0.05,192.3
			s86.3,192.3,192.3,192.3c48.2,0,92.3-17.8,126.1-47.2L428.05,447c2.6,2.6,6.1,4,9.5,4s6.9-1.3,9.5-4
			C452.25,441.8,452.25,433.2,447.05,428z M26.95,192.3c0-91.2,74.2-165.3,165.3-165.3c91.2,0,165.3,74.2,165.3,165.3
			s-74.1,165.4-165.3,165.4C101.15,357.7,26.95,283.5,26.95,192.3z"/>
	</g>

  </symbol>
  <symbol id="back"  viewBox="0 0 32.635 32.635">
<g>
	<path d="M32.135,16.817H0.5c-0.276,0-0.5-0.224-0.5-0.5s0.224-0.5,0.5-0.5h31.635c0.276,0,0.5,0.224,0.5,0.5
		S32.411,16.817,32.135,16.817z"/>
	<path d="M13.037,29.353c-0.128,0-0.256-0.049-0.354-0.146L0.146,16.669C0.053,16.575,0,16.448,0,16.315s0.053-0.26,0.146-0.354
		L12.684,3.429c0.195-0.195,0.512-0.195,0.707,0s0.195,0.512,0,0.707L1.207,16.315l12.184,12.184c0.195,0.195,0.195,0.512,0,0.707
		C13.293,29.304,13.165,29.353,13.037,29.353z"/>
</g>

  </symbol>
  <symbol id="arrow" viewBox="0 0 477.175 477.175" >
    <g>
    	<path d="M360.731,229.075l-225.1-225.1c-5.3-5.3-13.8-5.3-19.1,0s-5.3,13.8,0,19.1l215.5,215.5l-215.5,215.5
    		c-5.3,5.3-5.3,13.8,0,19.1c2.6,2.6,6.1,4,9.5,4c3.4,0,6.9-1.3,9.5-4l225.1-225.1C365.931,242.875,365.931,234.275,360.731,229.075z
    		"/>
    </g>

  </symbol>
  <symbol id="invoice"  viewBox="0 0 512 512" >
    <g>
    	<g>
    		<g>
    			<path d="M444.875,109.792L338.208,3.125c-2-2-4.708-3.125-7.542-3.125h-224C83.146,0,64,19.135,64,42.667v426.667
    				C64,492.865,83.146,512,106.667,512h298.667C428.854,512,448,492.865,448,469.333v-352
    				C448,114.5,446.875,111.792,444.875,109.792z M341.333,36.417l70.25,70.25h-48.917c-11.771,0-21.333-9.573-21.333-21.333V36.417z
    				 M426.667,469.333c0,11.76-9.563,21.333-21.333,21.333H106.667c-11.771,0-21.333-9.573-21.333-21.333V42.667
    				c0-11.76,9.563-21.333,21.333-21.333H320v64C320,108.865,339.146,128,362.667,128h64V469.333z"/>
    			<path d="M373.333,298.667H138.667c-5.896,0-10.667,4.771-10.667,10.667c0,5.896,4.771,10.667,10.667,10.667h234.667
    				c5.896,0,10.667-4.771,10.667-10.667C384,303.438,379.229,298.667,373.333,298.667z"/>
    			<path d="M373.333,234.667H138.667c-5.896,0-10.667,4.771-10.667,10.667c0,5.896,4.771,10.667,10.667,10.667h234.667
    				c5.896,0,10.667-4.771,10.667-10.667C384,239.438,379.229,234.667,373.333,234.667z"/>
    			<path d="M373.333,362.667H138.667c-5.896,0-10.667,4.771-10.667,10.667c0,5.896,4.771,10.667,10.667,10.667h234.667
    				c5.896,0,10.667-4.771,10.667-10.667C384,367.438,379.229,362.667,373.333,362.667z"/>
    			<path d="M266.667,426.667h-128c-5.896,0-10.667,4.771-10.667,10.667c0,5.896,4.771,10.667,10.667,10.667h128
    				c5.896,0,10.667-4.771,10.667-10.667C277.333,431.438,272.563,426.667,266.667,426.667z"/>
    			<path d="M234.667,181.333c0,5.896,4.771,10.667,10.667,10.667h128c5.896,0,10.667-4.771,10.667-10.667
    				c0-5.896-4.771-10.667-10.667-10.667h-128C239.438,170.667,234.667,175.438,234.667,181.333z"/>
    			<path d="M160,170.667h-21.333c-5.896,0-10.667,4.771-10.667,10.667c0,5.896,4.771,10.667,10.667,10.667h10.667
    				c0,5.896,4.771,10.667,10.667,10.667s10.667-4.771,10.667-10.667v-1.965C183.056,185.617,192,173.888,192,160
    				c0-17.646-14.354-32-32-32c-5.875,0-10.667-4.781-10.667-10.667c0-5.885,4.792-10.667,10.667-10.667h21.333
    				c5.896,0,10.667-4.771,10.667-10.667s-4.771-10.667-10.667-10.667h-10.667c0-5.896-4.771-10.667-10.667-10.667
    				s-10.667,4.771-10.667,10.667v1.965C136.944,91.716,128,103.445,128,117.333c0,17.646,14.354,32,32,32
    				c5.875,0,10.667,4.781,10.667,10.667S165.875,170.667,160,170.667z"/>
    		</g>
    	</g>
    </g>

  </symbol>
    <symbol id="contract"  viewBox="0 0 47 47"   >
      <g>
	<g id="Layer_1_155_">
		<g>
			<path d="M26.198,8.368H10.176c-1.18,0-2.137,0.957-2.137,2.136c0,1.179,0.957,2.136,2.137,2.136h16.022
				c1.182,0,2.137-0.957,2.137-2.136C28.334,9.325,27.379,8.368,26.198,8.368z"/>
			<path d="M28.334,18.515c0-1.18-0.955-2.136-2.137-2.136H10.176c-1.18,0-2.137,0.957-2.137,2.136c0,1.18,0.957,2.137,2.137,2.137
				h16.022C27.379,20.652,28.334,19.695,28.334,18.515z"/>
			<path d="M18.188,28.663c1.18,0,2.136-0.957,2.136-2.136c0-1.18-0.956-2.137-2.136-2.137h-8.012c-1.18,0-2.137,0.957-2.137,2.137
				s0.957,2.136,2.137,2.136H18.188z"/>
			<path d="M34.314,35.93l-2.241,1.479v5.318H4.301V4.273h27.772v8.442l4.273-7.401V2.136c0-1.18-0.957-2.136-2.137-2.136H2.164
				c-1.18,0-2.136,0.957-2.136,2.136v42.729c0,1.18,0.956,2.136,2.136,2.136h32.045c1.181,0,2.138-0.957,2.138-2.136V33.09
				l-1.021,1.766C35.077,35.287,34.727,35.658,34.314,35.93z"/>
			<path d="M46.947,9.894c-0.044-0.192-0.495-1.918-3.213-3.488c-2.718-1.569-4.438-1.097-4.628-1.038
				c-0.255,0.081-0.47,0.253-0.604,0.485L25.15,28.979c-0.083,0.145-0.132,0.306-0.142,0.472l-0.5,8.345
				c-0.024,0.404,0.182,0.786,0.531,0.989c0.352,0.202,0.785,0.188,1.123-0.033l6.977-4.606c0.139-0.09,0.254-0.213,0.337-0.356
				L46.829,10.66C46.963,10.428,47.004,10.156,46.947,9.894z M28.854,35.055c-0.355-0.287-0.758-0.558-1.191-0.809
				c-0.435-0.251-0.871-0.462-1.297-0.628l0.149-2.502c0.557,0.073,1.383,0.299,2.432,0.903c1.048,0.605,1.655,1.209,1.999,1.654
				L28.854,35.055z"/>
			<path d="M14.922,38.534c0.07,0.429,0.565,0.562,0.896,0.7c0.32,0.135,0.702-0.121,0.968-0.25c1.63-0.793,3.838,0.139,5.584,0.139
				c1.033,0,1.033-1.602,0-1.602c-2.036,0-3.73-0.515-5.748-0.182c0-0.117-0.043-0.275-0.169-0.49
				c-0.377-0.645-0.857-0.828-1.338-0.75c-0.032-0.076-0.063-0.152-0.108-0.229c-0.126-0.206-0.302-0.309-0.5-0.352
				c0.563-0.984,0.926-2.025,0.557-2.867c-0.113-0.256-0.434-0.387-0.692-0.397c-1.07-0.04-1.988,1.083-2.676,1.757
				c-1.721,1.687-3.237,3.602-4.704,5.508c-0.63,0.819,0.763,1.615,1.383,0.81c1.3-1.688,2.677-3.327,4.159-4.86
				c-0.357,0.586-0.736,1.161-1.135,1.715c-0.57,0.881,0.791,1.631,1.383,0.809c0.141-0.215,0.32-0.37,0.516-0.503
				c-0.039,0.099-0.079,0.196-0.119,0.296c0.002,0,0.004,0.001,0.006,0.002c-0.031,0.064-0.062,0.128-0.087,0.189
				c-0.358,0.897,0.979,1.308,1.465,0.616c0.123-0.174,0.237-0.36,0.34-0.555C14.896,38.172,14.893,38.352,14.922,38.534z"/>
		</g>
	</g>
</g>

  </symbol >

  <symbol id="close"  viewBox="0 0 371.23 371.23">
    <g>
      <polygon points="371.23,21.213 350.018,0 185.615,164.402 21.213,0 0,21.213 164.402,185.615 0,350.018 21.213,371.23
	185.615,206.828 350.018,371.23 371.23,350.018 206.828,185.615 "/>
    </g>
  </symbol>
</svg>
