<?xml version="1.0" encoding="utf-8"?>

<svg version="1.1" id="Layer_1"
	 xmlns="http://www.w3.org/2000/svg" xmlns:xlink="http://www.w3.org/1999/xlink" x="0px" y="0px" width="300px" height="1350px"
	 viewBox="0 0 300 1350" enable-background="new 0 0 300 1350" xml:space="preserve">

	<g>

		<g id="erro2">
			<g>
				<path fill="#FF3333" d="M110.37,1279.72c0.79-1.38,1.24-2.97,1.24-4.67s-0.45-3.29-1.24-4.67l-13.23-22.92
					c-1.52-3.21-4.77-5.431-8.55-5.431c-0.3,0-26.85,0-27.15,0c-3.45,0-6.46,1.841-8.12,4.601c-0.06,0.11-13.63,23.61-13.63,23.61
					l0,0c-0.83,1.409-1.31,3.05-1.31,4.81c0,1.79,0.5,3.46,1.36,4.89l0,0l13.51,23.301c1.63,2.81,4.67,4.71,8.15,4.72h27.15
					c0.01,0,0.02,0,0.03,0c3.55,0,6.64-1.96,8.26-4.851h0.02L110.37,1279.72z"/>
			</g>
			<g>
				<g>
					<path fill="#FFFFFF" d="M84.92,1284.061l-0.85,0.85c-0.55,0.55-1.46,0.55-2.01,0l-16.97-16.97c-0.55-0.551-0.55-1.46,0-2.011
						l0.85-0.85c0.55-0.55,1.46-0.55,2.01,0l16.97,16.97C85.47,1282.61,85.47,1283.51,84.92,1284.061z"/>
					<path fill="#FFFFFF" d="M84.06,1265.08l0.85,0.85c0.55,0.551,0.55,1.46,0,2.01l-16.97,16.971c-0.55,0.55-1.46,0.55-2.01,0
						l-0.85-0.851c-0.55-0.55-0.55-1.46,0-2.01l16.97-16.97C82.61,1264.53,83.51,1264.53,84.06,1265.08z"/>
				</g>
			</g>
		</g>

		<g id="erro_1">
			<path fill="#FF3333" d="M110.37,1120.38l-13.23-22.92c-1.52-3.21-4.77-5.43-8.55-5.43c-0.3,0-26.85,0-27.15,0
				c-3.45,0-6.46,1.84-8.12,4.6c-0.06,0.11-13.63,23.61-13.63,23.61l0,0c-0.83,1.41-1.31,3.05-1.31,4.81c0,1.79,0.5,3.46,1.36,4.89
				l0,0l13.51,23.301c1.63,2.81,4.67,4.71,8.15,4.72h27.15c0.01,0,0.02,0,0.03,0c3.55,0,6.64-1.96,8.26-4.85h0.02l13.5-23.391
				c0.79-1.38,1.24-2.97,1.24-4.67C111.61,1123.35,111.16,1121.76,110.37,1120.38z M81.17,1116c0.68-0.689,1.49-1.03,2.46-1.03
				c0.99,0,1.82,0.34,2.51,1.03c0.69,0.689,1.03,1.51,1.03,2.47c0,0.99-0.34,1.83-1.03,2.511c-0.69,0.689-1.53,1.029-2.51,1.029
				c-0.96,0-1.78-0.34-2.46-1.029c-0.68-0.69-1.01-1.53-1.01-2.511C80.15,1117.51,80.49,1116.689,81.17,1116z M63.85,1116
				c0.68-0.689,1.49-1.03,2.46-1.03c0.99,0,1.82,0.34,2.51,1.03c0.69,0.689,1.03,1.51,1.03,2.47c0,0.99-0.34,1.83-1.03,2.511
				c-0.69,0.689-1.53,1.029-2.51,1.029c-0.96,0-1.78-0.34-2.46-1.029c-0.68-0.69-1.01-1.53-1.01-2.511
				C62.83,1117.51,63.17,1116.689,63.85,1116z M91.16,1131.8c-0.31,0.561-0.76,0.92-1.36,1.101l-26.36,7.6
				c-0.6,0.17-1.18,0.11-1.73-0.189c-0.56-0.301-0.92-0.74-1.08-1.311c-0.17-0.6-0.11-1.18,0.2-1.74c0.31-0.56,0.76-0.92,1.36-1.1
				l26.36-7.6c0.6-0.171,1.18-0.11,1.73,0.189c0.56,0.3,0.92,0.74,1.08,1.311C91.54,1130.66,91.47,1131.24,91.16,1131.8z"/>
		</g>

		<g id="aviso">
			<g>
				<g>
					<g>
						<path fill="#FFBA00" d="M110.47,844.75c0-2.66-0.86-5.12-2.32-7.12L85.42,798.4c-2.1-3.61-6-6.03-10.47-6.03
							c-4.44,0-8.32,2.39-10.43,5.96l-23.33,40.3c-1.06,1.8-1.67,3.89-1.67,6.13c0,6.69,5.42,12.101,12.11,12.11h46.74
							C105.06,856.86,110.47,851.44,110.47,844.75z"/>
					</g>
				</g>
				<g>
					<path fill="#FFFFFF" d="M72.54,841.6c-0.69-0.68-1.03-1.51-1.03-2.479s0.34-1.79,1.03-2.48c0.68-0.68,1.51-1.029,2.48-1.029
						c0.94,0,1.76,0.34,2.44,1.029c0.68,0.69,1.03,1.511,1.03,2.48s-0.34,1.79-1.03,2.479c-0.69,0.69-1.5,1.03-2.44,1.03
						C74.05,842.63,73.22,842.28,72.54,841.6z M78.19,819.52l-0.73,11.44c0,0.69-0.24,1.28-0.73,1.771
						c-0.48,0.5-1.06,0.739-1.72,0.739c-0.69,0-1.28-0.25-1.77-0.739c-0.5-0.5-0.74-1.091-0.74-1.771l-0.77-11.51
						c-0.27-1.181,0.98-3.05,3.28-3.05C77.58,816.4,78.38,818.23,78.19,819.52z"/>
				</g>
			</g>
		</g>

		<g id="ok">
			<g>
				<path fill="#00AF3F" d="M94.68,1007.63H55.32c-6.24,0-11.34-5.1-11.34-11.34v-39.36c0-6.239,5.1-11.34,11.34-11.34h39.36
					c6.24,0,11.34,5.1,11.34,11.34v39.36C106.02,1002.53,100.91,1007.63,94.68,1007.63z"/>
				<path fill="#FFFFFF" d="M90.86,965.65c-0.42-0.42-0.95-0.631-1.58-0.631c-0.63,0.011-1.17,0.23-1.61,0.671L70.56,982.8
					l-6.13-6.13c-0.44-0.439-0.98-0.66-1.61-0.67c-0.63-0.01-1.16,0.2-1.58,0.63c-0.44,0.44-0.66,0.98-0.66,1.62
					s0.22,1.18,0.66,1.62l7.68,7.68c0.44,0.44,0.98,0.66,1.62,0.66c0.01,0,0.02,0,0.02,0c0.01,0,0.02,0,0.02,0
					c0.64,0,1.18-0.22,1.62-0.66l18.66-18.66c0.44-0.439,0.66-0.979,0.66-1.62C91.53,966.63,91.31,966.09,90.86,965.65z"/>
			</g>
		</g>

		<g id="info_line_on">
			<g>
				<circle fill="none" stroke="#96172E" stroke-width="4" stroke-miterlimit="10" cx="75" cy="675" r="32.46"/>
				<g>
					<path fill="#96172E" d="M71.81,664.12c0-0.87,0.31-1.62,0.92-2.25s1.36-0.94,2.23-0.94c0.9,0,1.66,0.311,2.29,0.94
						s0.94,1.38,0.94,2.25c0,0.899-0.31,1.66-0.94,2.28c-0.63,0.63-1.39,0.939-2.29,0.939c-0.87,0-1.62-0.31-2.23-0.939
						C72.12,665.77,71.81,665.01,71.81,664.12z M72.52,687.14v-14.81c0-0.68,0.24-1.271,0.73-1.75c0.48-0.48,1.06-0.73,1.72-0.73
						c0.68,0,1.28,0.24,1.77,0.73c0.5,0.479,0.74,1.07,0.74,1.75v14.81c0,0.69-0.25,1.28-0.74,1.771c-0.5,0.5-1.09,0.74-1.77,0.74
						c-0.66,0-1.23-0.25-1.72-0.74S72.52,687.83,72.52,687.14z"/>
				</g>
			</g>
		</g>

		<g id="info_line">
			<g>
				<circle fill="none" stroke="#D52B1E" stroke-width="4" stroke-miterlimit="10" cx="75" cy="525" r="32.46"/>
				<g>
					<path fill="#D52B1E" d="M71.81,514.12c0-0.87,0.31-1.62,0.92-2.25s1.36-0.94,2.23-0.94c0.9,0,1.66,0.311,2.29,0.94
						s0.94,1.38,0.94,2.25c0,0.899-0.31,1.66-0.94,2.28c-0.63,0.63-1.39,0.939-2.29,0.939c-0.87,0-1.62-0.31-2.23-0.939
						C72.12,515.77,71.81,515.01,71.81,514.12z M72.52,537.14v-14.81c0-0.68,0.24-1.271,0.73-1.75c0.48-0.48,1.06-0.73,1.72-0.73
						c0.68,0,1.28,0.24,1.77,0.73c0.5,0.479,0.74,1.07,0.74,1.75v14.81c0,0.69-0.25,1.28-0.74,1.771c-0.5,0.5-1.09,0.74-1.77,0.74
						c-0.66,0-1.23-0.25-1.72-0.74S72.52,537.83,72.52,537.14z"/>
				</g>
			</g>
		</g>

		<g id="info_cheio_on">
			<g>
				<circle fill="#96172E" cx="75" cy="375" r="32.46"/>
				<g>
					<path fill="#FFFFFF" d="M71.81,364.12c0-0.87,0.31-1.62,0.92-2.25s1.36-0.94,2.23-0.94c0.9,0,1.66,0.31,2.29,0.94
						s0.94,1.38,0.94,2.25c0,0.9-0.31,1.66-0.94,2.28c-0.63,0.63-1.39,0.94-2.29,0.94c-0.87,0-1.62-0.31-2.23-0.94
						S71.81,365.01,71.81,364.12z M72.52,387.14v-14.81c0-0.68,0.24-1.27,0.73-1.75c0.48-0.48,1.06-0.73,1.72-0.73
						c0.68,0,1.28,0.24,1.77,0.73c0.5,0.48,0.74,1.07,0.74,1.75v14.81c0,0.69-0.25,1.28-0.74,1.77c-0.5,0.5-1.09,0.74-1.77,0.74
						c-0.66,0-1.23-0.25-1.72-0.74C72.76,388.42,72.52,387.83,72.52,387.14z"/>
				</g>
			</g>
		</g>

		<g id="info_cheio">
			<g>
				<circle fill="#D42D27" cx="75" cy="225" r="32.46"/>
				<g>
					<path fill="#FFFFFF" d="M71.81,214.12c0-0.87,0.31-1.62,0.92-2.25s1.36-0.94,2.23-0.94c0.9,0,1.66,0.31,2.29,0.94
						s0.94,1.38,0.94,2.25c0,0.9-0.31,1.66-0.94,2.28c-0.63,0.63-1.39,0.94-2.29,0.94c-0.87,0-1.62-0.31-2.23-0.94
						C72.12,215.77,71.81,215.01,71.81,214.12z M72.52,237.14v-14.81c0-0.68,0.24-1.27,0.73-1.75c0.48-0.48,1.06-0.73,1.72-0.73
						c0.68,0,1.28,0.24,1.77,0.73c0.5,0.48,0.74,1.07,0.74,1.75v14.81c0,0.69-0.25,1.28-0.74,1.77c-0.5,0.5-1.09,0.74-1.77,0.74
						c-0.66,0-1.23-0.25-1.72-0.74C72.76,238.42,72.52,237.83,72.52,237.14z"/>
				</g>
			</g>
		</g>

		<g id="info_cinza">
			<g>
				<circle fill="#989898" cx="75" cy="75" r="32.46"/>
				<g>
					<path fill="#FFFFFF" d="M71.81,64.12c0-0.87,0.31-1.62,0.92-2.25s1.36-0.94,2.23-0.94c0.9,0,1.66,0.31,2.29,0.94
						s0.94,1.38,0.94,2.25c0,0.9-0.31,1.66-0.94,2.28c-0.63,0.63-1.39,0.94-2.29,0.94c-0.87,0-1.62-0.31-2.23-0.94
						C72.12,65.77,71.81,65.01,71.81,64.12z M72.52,87.14V72.33c0-0.68,0.24-1.27,0.73-1.75c0.48-0.48,1.06-0.73,1.72-0.73
						c0.68,0,1.28,0.24,1.77,0.73c0.5,0.48,0.74,1.07,0.74,1.75v14.81c0,0.69-0.25,1.28-0.74,1.77c-0.5,0.5-1.09,0.74-1.77,0.74
						c-0.66,0-1.23-0.25-1.72-0.74C72.76,88.42,72.52,87.83,72.52,87.14z"/>
				</g>
			</g>
		</g>

		<g>
			<path fill="none" d="M216.77,72.43c0.99,0,1.84-0.35,2.53-1.04s1.04-1.54,1.04-2.53c0-0.97-0.35-1.8-1.04-2.49
				s-1.54-1.04-2.53-1.04c-0.97,0-1.789,0.35-2.47,1.04c-0.68,0.7-1.021,1.53-1.021,2.49c0,0.99,0.341,1.84,1.021,2.53
				C214.98,72.08,215.8,72.43,216.77,72.43z"/>
			<path fill="none" d="M238.641,79.09c-1.051,0-1.951,0.65-2.32,1.57c-0.01,0.01-0.021,0.02-0.021,0.03
				c-2.04,4.14-6.38,7.08-11.31,7.08s-9.2-2.85-11.24-7h-0.01c-0.01-0.01-0.221-0.48-0.26-0.53c-0.451-0.69-1.221-1.15-2.11-1.15
				c-1.39,0-2.511,1.12-2.511,2.51c0,0.23,0.041,0.45,0.101,0.66c0.03,0.16,0.08,0.32,0.149,0.46
				c2.791,5.97,8.851,10.11,15.881,10.11c6.96,0,12.98-4.07,15.8-9.96c0.22-0.38,0.351-0.81,0.36-1.27
				C241.15,80.21,240.029,79.09,238.641,79.09z"/>
			<path fill="none" d="M233.15,72.43c0.99,0,1.84-0.35,2.529-1.04c0.69-0.69,1.041-1.54,1.041-2.53c0-0.97-0.351-1.8-1.041-2.49
				c-0.689-0.69-1.539-1.04-2.529-1.04c-0.971,0-1.791,0.35-2.471,1.04c-0.68,0.7-1.02,1.53-1.02,2.49c0,0.99,0.34,1.84,1.02,2.53
				S232.18,72.43,233.15,72.43z"/>
			<g>
				<path fill="none" d="M233.15,72.43c0.99,0,1.84-0.35,2.529-1.04c0.69-0.69,1.041-1.54,1.041-2.53c0-0.97-0.351-1.8-1.041-2.49
					c-0.689-0.69-1.539-1.04-2.529-1.04c-0.971,0-1.791,0.35-2.471,1.04c-0.68,0.7-1.02,1.53-1.02,2.49c0,0.99,0.34,1.84,1.02,2.53
					S232.18,72.43,233.15,72.43z"/>
				<path fill="none" d="M216.77,72.43c0.99,0,1.84-0.35,2.53-1.04s1.04-1.54,1.04-2.53c0-0.97-0.35-1.8-1.04-2.49
					s-1.54-1.04-2.53-1.04c-0.97,0-1.789,0.35-2.47,1.04c-0.68,0.7-1.021,1.53-1.021,2.49c0,0.99,0.341,1.84,1.021,2.53
					C214.98,72.08,215.8,72.43,216.77,72.43z"/>
				<path fill="none" d="M238.641,79.09c-1.051,0-1.951,0.65-2.32,1.57c-0.01,0.01-0.021,0.02-0.021,0.03
					c-2.04,4.14-6.38,7.08-11.31,7.08s-9.2-2.85-11.24-7h-0.01c-0.01-0.01-0.221-0.48-0.26-0.53c-0.451-0.69-1.221-1.15-2.11-1.15
					c-1.39,0-2.511,1.12-2.511,2.51c0,0.23,0.041,0.45,0.101,0.66c0.03,0.16,0.08,0.32,0.149,0.46
					c2.791,5.97,8.851,10.11,15.881,10.11c6.96,0,12.98-4.07,15.8-9.96c0.22-0.38,0.351-0.81,0.36-1.27
					C241.15,80.21,240.029,79.09,238.641,79.09z"/>
				<g>
					<path fill="#FFFFFF" d="M233.15,72.43c0.99,0,1.84-0.35,2.529-1.04c0.69-0.69,1.041-1.54,1.041-2.53
						c0-0.97-0.351-1.8-1.041-2.49c-0.689-0.69-1.539-1.04-2.529-1.04c-0.971,0-1.791,0.35-2.471,1.04
						c-0.68,0.7-1.02,1.53-1.02,2.49c0,0.99,0.34,1.84,1.02,2.53S232.18,72.43,233.15,72.43z"/>
					<path fill="#FFFFFF" d="M216.77,72.43c0.99,0,1.84-0.35,2.53-1.04s1.04-1.54,1.04-2.53c0-0.97-0.35-1.8-1.04-2.49
						s-1.54-1.04-2.53-1.04c-0.97,0-1.789,0.35-2.47,1.04c-0.68,0.7-1.021,1.53-1.021,2.49c0,0.99,0.341,1.84,1.021,2.53
						C214.98,72.08,215.8,72.43,216.77,72.43z"/>
					<path fill="#FFFFFF" d="M238.641,79.09c-1.051,0-1.951,0.65-2.32,1.57c-0.01,0.01-0.021,0.02-0.021,0.03
						c-2.04,4.14-6.38,7.08-11.31,7.08s-9.2-2.85-11.24-7h-0.01c-0.01-0.01-0.221-0.48-0.26-0.53c-0.451-0.69-1.221-1.15-2.11-1.15
						c-1.39,0-2.511,1.12-2.511,2.51c0,0.23,0.041,0.45,0.101,0.66c0.03,0.16,0.08,0.32,0.149,0.46
						c2.791,5.97,8.851,10.11,15.881,10.11c6.96,0,12.98-4.07,15.8-9.96c0.22-0.38,0.351-0.81,0.36-1.27
						C241.15,80.21,240.029,79.09,238.641,79.09z"/>
					<path fill="#FFFFFF" d="M230.68,66.37c0.68-0.69,1.5-1.04,2.471-1.04c0.99,0,1.84,0.35,2.529,1.04
						c0.69,0.69,1.041,1.52,1.041,2.49c0,0.99-0.351,1.84-1.041,2.53c-0.689,0.69-1.539,1.04-2.529,1.04
						c-0.971,0-1.791-0.35-2.471-1.04s-1.02-1.54-1.02-2.53C229.66,67.9,230,67.07,230.68,66.37z M214.3,66.37
						c0.681-0.69,1.5-1.04,2.47-1.04c0.99,0,1.84,0.35,2.53,1.04s1.04,1.52,1.04,2.49c0,0.99-0.35,1.84-1.04,2.53
						s-1.54,1.04-2.53,1.04c-0.97,0-1.789-0.35-2.47-1.04c-0.68-0.69-1.021-1.54-1.021-2.53C213.279,67.9,213.62,67.07,214.3,66.37z
						 M240.79,82.87c-2.819,5.89-8.84,9.96-15.8,9.96c-7.03,0-13.09-4.14-15.881-10.11c-0.069-0.14-0.119-0.3-0.149-0.46
						c-0.06-0.21-0.101-0.43-0.101-0.66c0-1.39,1.121-2.51,2.511-2.51c0.89,0,1.659,0.46,2.11,1.15c0.039,0.05,0.25,0.52,0.26,0.53
						h0.01c2.04,4.15,6.311,7,11.24,7s9.27-2.94,11.31-7.08c0-0.01,0.011-0.02,0.021-0.03c0.369-0.92,1.27-1.57,2.32-1.57
						c1.389,0,2.51,1.12,2.51,2.51C241.141,82.06,241.01,82.49,240.79,82.87z"/>
				</g>
			</g>
		</g>

		<g id="cara_nao">
			<path fill="#FFFFFF" d="M231.08,216.37c0.68-0.69,1.5-1.04,2.47-1.04c0.99,0,1.841,0.35,2.53,1.04s1.04,1.52,1.04,2.49
				c0,0.99-0.351,1.84-1.04,2.53s-1.54,1.04-2.53,1.04c-0.97,0-1.79-0.35-2.47-1.04s-1.02-1.54-1.02-2.53
				C230.061,217.9,230.4,217.07,231.08,216.37z M214.71,216.37c0.681-0.69,1.5-1.04,2.47-1.04c0.99,0,1.84,0.35,2.53,1.04
				s1.04,1.52,1.04,2.49c0,0.99-0.35,1.84-1.04,2.53s-1.54,1.04-2.53,1.04c-0.97,0-1.789-0.35-2.47-1.04s-1.021-1.54-1.021-2.53
				C213.689,217.9,214.029,217.07,214.71,216.37z M238.95,232.4c0,0.01,0,0.01,0,0.01l-23.74,6.74c-0.229,0.07-0.47,0.12-0.72,0.12
				c-1.36,0-2.461-1.1-2.461-2.46c0-1.1,0.721-2.01,1.711-2.33v-0.01l23.779-6.76l0.01,0.01c0.211-0.06,0.421-0.1,0.65-0.1
				c1.36,0,2.461,1.1,2.461,2.46C240.63,231.16,239.93,232.07,238.95,232.4z"/>
		</g>
	</g>

</svg>
