<?xml version="1.0" encoding="utf-8"?>
<!-- Generator: Adobe Illustrator 18.1.1, SVG Export Plug-In . SVG Version: 6.00 Build 0)  -->
<svg version="1.1" xmlns="http://www.w3.org/2000/svg" xmlns:xlink="http://www.w3.org/1999/xlink" x="0px" y="0px" width="100px"
	 height="1550px" viewBox="0 0 100 1550" enable-background="new 0 0 100 1550" xml:space="preserve">
	 
	<g id="cancel_on">
		<g>
			<g>
				<path fill="#96172E" d="M37.815,1287.249l-0.565,0.565c-0.552,0.552-1.456,0.552-2.009,0l-23.055-23.055
					c-0.552-0.552-0.552-1.456,0-2.009l0.565-0.565c0.552-0.552,1.456-0.552,2.009,0l23.055,23.055
					C38.367,1285.793,38.367,1286.697,37.815,1287.249z"/>
				<path fill="#96172E" d="M37.249,1262.185l0.565,0.565c0.552,0.552,0.552,1.457,0,2.009l-23.055,23.055
					c-0.552,0.552-1.456,0.552-2.009,0l-0.565-0.565c-0.552-0.552-0.552-1.457,0-2.009l23.055-23.055
					C35.793,1261.633,36.697,1261.633,37.249,1262.185z"/>
			</g>
		</g>
	</g>
	<g id="cancel">
		<g>
			<g>
				<path fill="#D52B1E" d="M37.815,1239.249l-0.565,0.565c-0.552,0.552-1.456,0.552-2.009,0l-23.055-23.055
					c-0.552-0.552-0.552-1.456,0-2.009l0.565-0.565c0.552-0.552,1.456-0.552,2.009,0l23.055,23.055
					C38.367,1237.793,38.367,1238.697,37.815,1239.249z"/>
				<path fill="#D52B1E" d="M37.249,1214.185l0.565,0.565c0.552,0.552,0.552,1.457,0,2.009l-23.055,23.055
					c-0.552,0.552-1.456,0.552-2.009,0l-0.565-0.565c-0.552-0.552-0.552-1.457,0-2.009l23.055-23.055
					C35.793,1213.633,36.697,1213.633,37.249,1214.185z"/>
			</g>
		</g>
	</g>
	<g id="ok_on">
		<path fill="#96172E" d="M43.905,1161.386l-0.565-0.565c-0.552-0.552-1.457-0.552-2.009,0l-20.513,20.513l-10.24-10.24
			c-0.552-0.552-1.456-0.552-2.009,0l-0.565,0.565c-0.552,0.552-0.552,1.457,0,2.009l11.807,11.807c0.552,0.552,1.456,0.552,2.009,0
			l0.004-0.004c0.006-0.006,0.015-0.008,0.021-0.014l22.06-22.06C44.458,1162.843,44.458,1161.939,43.905,1161.386z"/>
	</g>
	<g id="ok">
		<path fill="#D52B1E" d="M43.905,1113.239l-0.565-0.565c-0.552-0.552-1.457-0.552-2.009,0l-20.513,20.513l-10.24-10.24
			c-0.552-0.552-1.456-0.552-2.009,0l-0.565,0.565c-0.552,0.552-0.552,1.457,0,2.009l11.807,11.807c0.552,0.552,1.456,0.552,2.009,0
			l0.004-0.004c0.006-0.006,0.015-0.008,0.021-0.014l22.06-22.06C44.458,1114.695,44.458,1113.791,43.905,1113.239z"/>
	</g>
	<g id="debito_direto_on">
		<g>
			<g>
				<path fill="#96172E" d="M22.467,1080.569v-1.333H9.258v1.333H22.467z M29.085,1071.347v-11.94h-2.088v0.984
					c0,0.863-0.702,1.566-1.565,1.566c-0.862,0-1.566-0.703-1.566-1.566v-0.984h-1.392v0.984c0,0.863-0.702,1.566-1.566,1.566
					c-0.862,0-1.563-0.703-1.563-1.566v-0.984h-1.393v0.984c0,0.863-0.702,1.566-1.565,1.566c-0.862,0-1.565-0.703-1.565-1.566
					v-0.984h-1.39v0.984c0,0.863-0.702,1.566-1.565,1.566c-0.862,0-1.564-0.703-1.564-1.566v-0.984H8.216v18.784h14.253v-1.042H9.258
					v-13.808H28.04v8.006H29.085z M12.909,1060.39v-3.131c0-0.576-0.468-1.043-1.044-1.043c-0.577,0-1.044,0.467-1.044,1.043v3.131
					c0,0.576,0.467,1.043,1.044,1.043C12.441,1061.432,12.909,1060.966,12.909,1060.39z M17.432,1060.39v-3.131
					c0-0.576-0.467-1.043-1.045-1.043c-0.575,0-1.042,0.467-1.042,1.043v3.131c0,0.576,0.466,1.043,1.042,1.043
					C16.964,1061.432,17.432,1060.966,17.432,1060.39z M21.953,1060.39v-3.131c0-0.576-0.466-1.043-1.044-1.043
					c-0.574,0-1.043,0.467-1.043,1.043v3.131c0,0.576,0.468,1.043,1.043,1.043C21.487,1061.432,21.953,1060.966,21.953,1060.39z
					 M26.475,1060.39v-3.131c0-0.576-0.466-1.043-1.042-1.043c-0.577,0-1.044,0.467-1.044,1.043v3.131
					c0,0.576,0.467,1.043,1.044,1.043C26.009,1061.432,26.475,1060.966,26.475,1060.39z M38.213,1083.726v-11.336H23.51v11.335h-3.57
					l10.923,10.059l10.921-10.058H38.213z M30.862,1085.444c-2.887,0-5.227-2.342-5.227-5.229c0-2.884,2.34-5.224,5.227-5.224
					c2.887,0,5.224,2.34,5.224,5.224C36.087,1083.101,33.749,1085.444,30.862,1085.444z M30.955,1078.104
					c0.529,0,0.981,0.243,1.274,0.587c0.396,0.46,1.132-0.052,0.706-0.654c-0.37-0.522-1.141-0.88-1.921-0.88
					c-1.366,0-2.28,0.78-2.616,1.969h-0.359c-0.236,0-0.421,0.187-0.421,0.42c0,0.235,0.185,0.419,0.421,0.419h0.226
					c-0.008,0.085-0.008,0.168-0.008,0.25c0,0.085,0,0.17,0.008,0.254h-0.226c-0.236,0-0.421,0.184-0.421,0.418
					c0,0.233,0.185,0.42,0.421,0.42h0.342c0.32,1.192,1.193,1.969,2.575,1.969c0.837,0,1.609-0.358,1.979-0.879
					c0.426-0.604-0.31-1.115-0.706-0.654c-0.293,0.344-0.744,0.562-1.274,0.562c-0.77,0-1.292-0.378-1.56-0.997h1.668
					c0.237,0,0.421-0.186,0.421-0.42c0-0.234-0.184-0.418-0.421-0.418h-1.853c-0.007-0.083-0.007-0.16-0.007-0.254
					c0-0.082,0-0.165,0.007-0.25h1.853c0.237,0,0.421-0.184,0.421-0.419c0-0.233-0.184-0.42-0.421-0.42h-1.668
					C29.654,1078.498,30.184,1078.104,30.955,1078.104z M17.805,1068.711c0-1.254-0.962-2.427-2.855-2.427
					c-1.174,0-2.271,0.555-2.815,1.341c-0.524,0.752,0.439,1.37,0.921,0.763c0.448-0.565,1.036-0.951,1.894-0.951
					c1.034,0,1.61,0.586,1.61,1.318c0,0.503-0.291,0.973-1.023,1.475l-3.372,2.303c-0.587,0.398-0.418,1.235,0.325,1.235h4.687
					c0.336,0,0.595-0.221,0.595-0.576c0-0.356-0.259-0.577-0.595-0.577h-3.264l2.103-1.36
					C17.146,1070.523,17.805,1069.83,17.805,1068.711z M25.339,1071.347c0.095-0.384,0.146-0.8,0.146-1.242
					c0-2.365-1.329-3.822-3.308-3.822c-2.104,0-3.369,1.591-3.369,3.822c0,2.362,1.361,3.818,3.296,3.818
					c0.125,0,0.243-0.007,0.362-0.018v-1.187c-0.116,0.021-0.236,0.032-0.362,0.032c-1.212,0-2.059-0.993-2.059-2.645
					c0-1.56,0.805-2.637,2.132-2.637c1.235,0,2.072,0.971,2.072,2.637c0,0.462-0.072,0.881-0.207,1.242L25.339,1071.347
					L25.339,1071.347z"/>
			</g>
		</g>
	</g>
	<g id="debito_direto">
		<g>
			<g>
				<path fill="#D52B1E" d="M22.467,1030.569v-1.333H9.258v1.333H22.467z M29.085,1021.347v-11.94h-2.088v0.984
					c0,0.863-0.702,1.566-1.565,1.566c-0.862,0-1.566-0.703-1.566-1.566v-0.984h-1.392v0.984c0,0.863-0.702,1.566-1.566,1.566
					c-0.862,0-1.563-0.703-1.563-1.566v-0.984h-1.393v0.984c0,0.863-0.702,1.566-1.565,1.566c-0.862,0-1.565-0.703-1.565-1.566
					v-0.984h-1.39v0.984c0,0.863-0.702,1.566-1.565,1.566c-0.862,0-1.564-0.703-1.564-1.566v-0.984H8.216v18.784h14.253v-1.042H9.258
					v-13.808H28.04v8.006H29.085z M12.909,1010.39v-3.131c0-0.576-0.468-1.043-1.044-1.043c-0.577,0-1.044,0.467-1.044,1.043v3.131
					c0,0.576,0.467,1.043,1.044,1.043C12.441,1011.432,12.909,1010.966,12.909,1010.39z M17.432,1010.39v-3.131
					c0-0.576-0.467-1.043-1.045-1.043c-0.575,0-1.042,0.467-1.042,1.043v3.131c0,0.576,0.466,1.043,1.042,1.043
					C16.964,1011.432,17.432,1010.966,17.432,1010.39z M21.953,1010.39v-3.131c0-0.576-0.466-1.043-1.044-1.043
					c-0.574,0-1.043,0.467-1.043,1.043v3.131c0,0.576,0.468,1.043,1.043,1.043C21.487,1011.432,21.953,1010.966,21.953,1010.39z
					 M26.475,1010.39v-3.131c0-0.576-0.466-1.043-1.042-1.043c-0.577,0-1.044,0.467-1.044,1.043v3.131
					c0,0.576,0.467,1.043,1.044,1.043C26.009,1011.432,26.475,1010.966,26.475,1010.39z M38.213,1033.726v-11.336H23.51v11.335h-3.57
					l10.923,10.059l10.921-10.058H38.213z M30.862,1035.444c-2.887,0-5.227-2.342-5.227-5.229c0-2.884,2.34-5.224,5.227-5.224
					c2.887,0,5.224,2.34,5.224,5.224C36.087,1033.101,33.749,1035.444,30.862,1035.444z M30.955,1028.104
					c0.529,0,0.981,0.243,1.274,0.587c0.396,0.46,1.132-0.052,0.706-0.654c-0.37-0.522-1.141-0.88-1.921-0.88
					c-1.366,0-2.28,0.78-2.616,1.969h-0.359c-0.236,0-0.421,0.187-0.421,0.42c0,0.235,0.185,0.419,0.421,0.419h0.226
					c-0.008,0.085-0.008,0.168-0.008,0.25c0,0.085,0,0.17,0.008,0.254h-0.226c-0.236,0-0.421,0.184-0.421,0.418
					c0,0.233,0.185,0.42,0.421,0.42h0.342c0.32,1.192,1.193,1.969,2.575,1.969c0.837,0,1.609-0.358,1.979-0.879
					c0.426-0.604-0.31-1.115-0.706-0.654c-0.293,0.344-0.744,0.562-1.274,0.562c-0.77,0-1.292-0.378-1.56-0.997h1.668
					c0.237,0,0.421-0.186,0.421-0.42c0-0.234-0.184-0.418-0.421-0.418h-1.853c-0.007-0.083-0.007-0.16-0.007-0.254
					c0-0.082,0-0.165,0.007-0.25h1.853c0.237,0,0.421-0.184,0.421-0.419c0-0.233-0.184-0.42-0.421-0.42h-1.668
					C29.654,1028.498,30.184,1028.104,30.955,1028.104z M17.805,1018.711c0-1.254-0.962-2.427-2.855-2.427
					c-1.174,0-2.271,0.555-2.815,1.341c-0.524,0.752,0.439,1.37,0.921,0.763c0.448-0.565,1.036-0.951,1.894-0.951
					c1.034,0,1.61,0.586,1.61,1.318c0,0.503-0.291,0.973-1.023,1.475l-3.372,2.303c-0.587,0.398-0.418,1.235,0.325,1.235h4.687
					c0.336,0,0.595-0.221,0.595-0.576c0-0.356-0.259-0.577-0.595-0.577h-3.264l2.103-1.36
					C17.146,1020.523,17.805,1019.83,17.805,1018.711z M25.339,1021.347c0.095-0.384,0.146-0.8,0.146-1.242
					c0-2.365-1.329-3.822-3.308-3.822c-2.104,0-3.369,1.591-3.369,3.822c0,2.362,1.361,3.818,3.296,3.818
					c0.125,0,0.243-0.007,0.362-0.018v-1.187c-0.116,0.021-0.236,0.032-0.362,0.032c-1.212,0-2.059-0.993-2.059-2.645
					c0-1.56,0.805-2.637,2.132-2.637c1.235,0,2.072,0.971,2.072,2.637c0,0.462-0.072,0.881-0.207,1.242L25.339,1021.347
					L25.339,1021.347z"/>
			</g>
		</g>
	</g>
	<g id="fatura_eletronica_on">
		<g>
			<path fill="#96172E" d="M29.696,960H16.279c-1.059,0-1.916,0.839-1.916,1.875v26.25c0,1.035,0.857,1.875,1.916,1.875h19.167
				c1.059,0,1.917-0.84,1.917-1.875V967.5L29.696,960z M34.488,987.188h-17.25v-24.375h11.5v5.625h5.75V987.188z"/>
			<path fill="#96172E" d="M31.746,977.451c-0.107-0.259-0.39-0.387-0.646-0.303l0.292-2.125c0.136-0.981-0.552-1.748-1.472-1.757
				c-1.036-0.01-1.611,0.83-1.751,1.593c-0.08,0.438-0.131,0.515-0.283,0.67l-1.097,1.113l0.639-4.677
				c0.041-0.295-0.16-0.568-0.449-0.61s-0.557,0.165-0.597,0.46l-0.21,1.534c0,0-0.25-0.124-0.6-0.127
				c-0.855-0.008-1.689,0.656-1.816,1.591c-0.055,0.398-0.137,0.535-0.284,0.706c-0.131,0.151-1.31,1.507-1.31,1.507
				c-0.174,0.185-0.676,0.776-1.424,0.769c-0.388-0.004-0.436-0.42-0.436-0.42l1.119-0.781c0.463-0.322,1.434-1,1.443-1.948
				c0.008-0.851-0.633-1.458-1.471-1.466c-1.018-0.011-1.701,0.747-1.828,1.594l-0.313,2.063c-0.002,0.009-0.003,0.016-0.003,0.023
				v-0.001l-0.341,0.242c-0.233,0.181-0.279,0.52-0.104,0.758c0.103,0.139,0.259,0.214,0.417,0.215
				c0.047,0.001,0.094-0.008,0.141-0.02c0.215,0.502,0.664,0.814,1.324,0.821c1.215,0.013,1.91-0.787,2.189-1.107l0.566-0.652
				c-0.158,1.168,0.589,1.794,1.412,1.803c0.962,0.01,1.301-0.308,2.213-1.146l0.762-0.731l-0.455,3.318
				c-0.041,0.296,0.16,0.568,0.449,0.61c0.289,0.041,0.557-0.164,0.598-0.461l0.229-1.674c0,0,0.255,0.127,0.604,0.131
				c0.245,0.003,0.489-0.051,0.715-0.148l1.501-0.657C31.737,978.043,31.861,977.727,31.746,977.451z M20.54,974.925
				c0.06-0.419,0.44-0.712,0.845-0.708c0.402,0.004,0.438,0.289,0.436,0.401c-0.004,0.437-0.689,0.916-1.44,1.445
				C20.38,976.063,20.476,975.376,20.54,974.925z M25.955,974.931l-0.307,2.237c-0.065,0.475-0.396,0.665-0.672,0.662
				c-0.399-0.004-0.539-0.227-0.479-0.674l0.307-2.238c0.065-0.473,0.396-0.665,0.673-0.662
				C25.877,974.261,26.015,974.485,25.955,974.931z M30.326,974.975l-0.307,2.238c-0.064,0.475-0.396,0.665-0.672,0.662
				c-0.4-0.004-0.539-0.227-0.478-0.674l0.306-2.237c0.065-0.474,0.396-0.665,0.672-0.663
				C30.248,974.306,30.386,974.53,30.326,974.975z"/>
		</g>
	</g>
	<g id="fatura_eletronica">
		<g>
			<path fill="#D52B1E" d="M29.696,910H16.279c-1.059,0-1.916,0.839-1.916,1.875v26.25c0,1.035,0.857,1.875,1.916,1.875h19.167
				c1.059,0,1.917-0.84,1.917-1.875V917.5L29.696,910z M34.488,937.188h-17.25v-24.375h11.5v5.625h5.75V937.188z"/>
			<path fill="#D52B1E" d="M31.746,927.451c-0.107-0.259-0.39-0.387-0.646-0.303l0.292-2.125c0.136-0.981-0.552-1.748-1.472-1.757
				c-1.036-0.01-1.611,0.83-1.751,1.593c-0.08,0.438-0.131,0.515-0.283,0.67l-1.097,1.113l0.639-4.677
				c0.041-0.295-0.16-0.568-0.449-0.61s-0.557,0.165-0.597,0.46l-0.21,1.534c0,0-0.25-0.124-0.6-0.127
				c-0.855-0.008-1.689,0.656-1.816,1.591c-0.055,0.398-0.137,0.535-0.284,0.706c-0.131,0.151-1.31,1.507-1.31,1.507
				c-0.174,0.185-0.676,0.776-1.424,0.769c-0.388-0.004-0.436-0.42-0.436-0.42l1.119-0.781c0.463-0.322,1.434-1,1.443-1.948
				c0.008-0.851-0.633-1.458-1.471-1.466c-1.018-0.011-1.701,0.747-1.828,1.594l-0.313,2.063c-0.002,0.009-0.003,0.016-0.003,0.023
				v-0.001l-0.341,0.242c-0.233,0.181-0.279,0.52-0.104,0.758c0.103,0.139,0.259,0.214,0.417,0.215
				c0.047,0.001,0.094-0.008,0.141-0.02c0.215,0.502,0.664,0.814,1.324,0.821c1.215,0.013,1.91-0.787,2.189-1.107l0.566-0.652
				c-0.158,1.168,0.589,1.794,1.412,1.803c0.962,0.01,1.301-0.308,2.213-1.146l0.762-0.731l-0.455,3.318
				c-0.041,0.296,0.16,0.568,0.449,0.61c0.289,0.041,0.557-0.164,0.598-0.461l0.229-1.674c0,0,0.255,0.127,0.604,0.131
				c0.245,0.003,0.489-0.051,0.715-0.148l1.501-0.657C31.737,928.043,31.861,927.727,31.746,927.451z M20.54,924.925
				c0.06-0.419,0.44-0.712,0.845-0.708c0.402,0.004,0.438,0.289,0.436,0.401c-0.004,0.437-0.689,0.916-1.44,1.445
				C20.38,926.063,20.476,925.376,20.54,924.925z M25.955,924.931l-0.307,2.237c-0.065,0.475-0.396,0.665-0.672,0.662
				c-0.399-0.004-0.539-0.227-0.479-0.674l0.307-2.238c0.065-0.473,0.396-0.665,0.673-0.662
				C25.877,924.261,26.015,924.485,25.955,924.931z M30.326,924.975l-0.307,2.238c-0.064,0.475-0.396,0.665-0.672,0.662
				c-0.4-0.004-0.539-0.227-0.478-0.674l0.306-2.237c0.065-0.474,0.396-0.665,0.672-0.663
				C30.248,924.306,30.386,924.53,30.326,924.975z"/>
		</g>
	</g>
	<g id="pagar_ja_on">
		<g>
			<rect x="17.555" y="877.766" fill="#96172E" width="3.643" height="1.325"/>
			<rect x="22.522" y="877.766" fill="#96172E" width="6.683" height="1.325"/>
			<path fill="#96172E" d="M36.249,871.782c0-0.979,1.984-1.773,4.431-1.773c2.448,0,4.432,0.794,4.432,1.773
				c0,0.979-1.984,1.772-4.432,1.772C38.232,873.554,36.249,872.761,36.249,871.782z M40.68,882.417
				c-0.304,0-0.599-0.012-0.886-0.035v1.772c0.287,0.023,0.583,0.035,0.886,0.035c2.448,0,4.432-0.794,4.432-1.772v-1.773
				C45.112,881.624,43.127,882.417,40.68,882.417z M40.68,877.099c-0.305,0-0.602-0.013-0.89-0.036c0,0.012,0.004,0.023,0.004,0.036
				v1.737c0.287,0.023,0.583,0.035,0.886,0.035c2.448,0,4.432-0.793,4.432-1.772v-1.772C45.112,876.306,43.127,877.099,40.68,877.099
				z M40.68,874.441c-2.447,0-4.431-0.794-4.431-1.772v1.772c0,0.053,0.008,0.106,0.019,0.158c1.451,0.26,2.609,0.825,3.164,1.542
				c0.397,0.047,0.815,0.073,1.248,0.073c2.448,0,4.432-0.794,4.432-1.773v-1.772C45.112,873.647,43.127,874.441,40.68,874.441z
				 M40.68,879.759c-0.304,0-0.599-0.012-0.886-0.036v1.773c0.287,0.023,0.583,0.035,0.886,0.035c2.448,0,4.432-0.794,4.432-1.772
				v-1.772C45.112,878.965,43.127,879.759,40.68,879.759z"/>
			<path fill="#96172E" d="M38.907,877.099c0,0.979-1.984,1.772-4.431,1.772c-2.448,0-4.432-0.793-4.432-1.772
				c0-0.979,1.984-1.772,4.432-1.772C36.923,875.327,38.907,876.12,38.907,877.099z M34.476,879.759
				c-2.448,0-4.432-0.794-4.432-1.772v1.772c0,0.979,1.984,1.772,4.432,1.772c2.447,0,4.431-0.794,4.431-1.772v-1.772
				C38.907,878.965,36.923,879.759,34.476,879.759z M34.476,882.417c-2.448,0-4.432-0.794-4.432-1.773v1.773
				c0,0.979,1.984,1.772,4.432,1.772c2.447,0,4.431-0.794,4.431-1.772v-1.773C38.907,881.624,36.923,882.417,34.476,882.417z
				 M34.476,885.076c-2.448,0-4.432-0.794-4.432-1.772v1.772c0,0.979,1.984,1.773,4.432,1.773c2.447,0,4.431-0.794,4.431-1.773
				v-1.772C38.907,884.282,36.923,885.076,34.476,885.076z"/>
			<path fill="#96172E" d="M30.796,863.151H7.569c-1.475,0-2.68,1.205-2.68,2.68v2.083v4.466v7.744c0,1.473,1.206,2.68,2.68,2.68
				h21.635v-1.2H7.569c-0.816,0-1.481-0.664-1.481-1.48v-7.744v-0.855h26.188v0.855v2.322c0.387-0.079,0.79-0.138,1.2-0.172v-2.15
				v-4.467v-2.083C33.476,864.356,32.271,863.151,30.796,863.151z M7.569,864.351h23.227c0.817,0,1.481,0.664,1.481,1.481v1.514
				H6.089v-1.514C6.089,865.015,6.753,864.351,7.569,864.351z"/>
			<path fill="#96172E" d="M39.747,884.205c0.014-0.021,0.028-0.042,0.041-0.063c-0.014-0.001-0.027-0.003-0.041-0.004V884.205z"/>
		</g>
	</g>
	<g id="pagar_ja">
		<g>
			<rect x="17.555" y="827.766" fill="#D52B1E" width="3.643" height="1.325"/>
			<rect x="22.522" y="827.766" fill="#D52B1E" width="6.683" height="1.325"/>
			<path fill="#D52B1E" d="M36.249,821.782c0-0.979,1.984-1.773,4.431-1.773c2.448,0,4.432,0.794,4.432,1.773
				c0,0.979-1.984,1.772-4.432,1.772C38.232,823.554,36.249,822.761,36.249,821.782z M40.68,832.417
				c-0.304,0-0.599-0.012-0.886-0.035v1.772c0.287,0.023,0.583,0.035,0.886,0.035c2.448,0,4.432-0.794,4.432-1.772v-1.773
				C45.112,831.624,43.127,832.417,40.68,832.417z M40.68,827.099c-0.305,0-0.602-0.013-0.89-0.036c0,0.012,0.004,0.023,0.004,0.036
				v1.737c0.287,0.023,0.583,0.035,0.886,0.035c2.448,0,4.432-0.793,4.432-1.772v-1.772C45.112,826.306,43.127,827.099,40.68,827.099
				z M40.68,824.441c-2.447,0-4.431-0.794-4.431-1.772v1.772c0,0.053,0.008,0.106,0.019,0.158c1.451,0.26,2.609,0.825,3.164,1.542
				c0.397,0.047,0.815,0.073,1.248,0.073c2.448,0,4.432-0.794,4.432-1.773v-1.772C45.112,823.647,43.127,824.441,40.68,824.441z
				 M40.68,829.759c-0.304,0-0.599-0.012-0.886-0.036v1.773c0.287,0.023,0.583,0.035,0.886,0.035c2.448,0,4.432-0.794,4.432-1.772
				v-1.772C45.112,828.965,43.127,829.759,40.68,829.759z"/>
			<path fill="#D52B1E" d="M38.907,827.099c0,0.979-1.984,1.772-4.431,1.772c-2.448,0-4.432-0.793-4.432-1.772
				c0-0.979,1.984-1.772,4.432-1.772C36.923,825.327,38.907,826.12,38.907,827.099z M34.476,829.759
				c-2.448,0-4.432-0.794-4.432-1.772v1.772c0,0.979,1.984,1.772,4.432,1.772c2.447,0,4.431-0.794,4.431-1.772v-1.772
				C38.907,828.965,36.923,829.759,34.476,829.759z M34.476,832.417c-2.448,0-4.432-0.794-4.432-1.773v1.773
				c0,0.979,1.984,1.772,4.432,1.772c2.447,0,4.431-0.794,4.431-1.772v-1.773C38.907,831.624,36.923,832.417,34.476,832.417z
				 M34.476,835.076c-2.448,0-4.432-0.794-4.432-1.772v1.772c0,0.979,1.984,1.773,4.432,1.773c2.447,0,4.431-0.794,4.431-1.773
				v-1.772C38.907,834.282,36.923,835.076,34.476,835.076z"/>
			<path fill="#D52B1E" d="M30.796,813.151H7.569c-1.475,0-2.68,1.205-2.68,2.68v2.083v4.466v7.744c0,1.473,1.206,2.68,2.68,2.68
				h21.635v-1.2H7.569c-0.816,0-1.481-0.664-1.481-1.48v-7.744v-0.855h26.188v0.855v2.322c0.387-0.079,0.79-0.138,1.2-0.172v-2.15
				v-4.467v-2.083C33.476,814.356,32.271,813.151,30.796,813.151z M7.569,814.351h23.227c0.817,0,1.481,0.664,1.481,1.481v1.514
				H6.089v-1.514C6.089,815.015,6.753,814.351,7.569,814.351z"/>
			<path fill="#D52B1E" d="M39.747,834.205c0.014-0.021,0.028-0.042,0.041-0.063c-0.014-0.001-0.027-0.003-0.041-0.004V834.205z"/>
		</g>
	</g>
	<g id="edit_on">
		<path fill="#96172E" d="M36.605,763.44c-2.531-2.531-4.429-2.169-4.429-2.169l-8.948,8.948l-10.213,10.123l-1.808,8.405
			l8.405-1.808l10.213-10.123l8.948-8.948C38.774,767.869,39.136,765.971,36.605,763.44z M19.161,785.945l-2.892,0.633
			c-0.271-0.452-0.542-0.994-1.175-1.627c-0.633-0.633-1.085-0.904-1.627-1.175l0.633-2.892l0,0c0,0,1.717-0.362,3.434,1.446
			C19.252,784.047,19.161,785.945,19.161,785.945L19.161,785.945z"/>
	</g>
	<g id="edit">
		<path fill="#D52B1E" d="M36.605,713.44c-2.531-2.531-4.429-2.169-4.429-2.169l-8.948,8.948l-10.213,10.123l-1.808,8.405
			l8.405-1.808l10.213-10.123l8.948-8.948C38.774,717.869,39.136,715.971,36.605,713.44z M19.161,735.945l-2.892,0.633
			c-0.271-0.452-0.542-0.994-1.175-1.627c-0.633-0.633-1.085-0.904-1.627-1.175l0.633-2.892l0,0c0,0,1.717-0.362,3.434,1.446
			C19.252,734.047,19.161,735.945,19.161,735.945L19.161,735.945z"/>
	</g>
	<g id="visivel_on">
		<g>
			<g>
				<path fill="#96172E" d="M40.575,674.305c-0.233-0.346-5.821-8.477-15.575-8.477c-9.754,0-15.342,8.131-15.575,8.477
					c-0.283,0.42-0.283,0.969,0,1.389c0.233,0.346,5.821,8.478,15.575,8.478c9.754,0,15.342-8.132,15.575-8.478
					C40.858,675.275,40.858,674.725,40.575,674.305z M25,681.686c-6.851,0-11.476-4.852-12.981-6.688
					c1.5-1.839,6.104-6.683,12.981-6.683c6.851,0,11.476,4.852,12.981,6.688C36.481,676.841,31.877,681.686,25,681.686z"/>
				<path fill="#96172E" d="M24.997,670.21c-1.045,0-2.039,0.332-2.876,0.961c-2.11,1.588-2.536,4.597-0.949,6.708
					c0.914,1.215,2.31,1.911,3.832,1.911c1.045,0,2.039-0.332,2.876-0.961c1.023-0.769,1.684-1.89,1.864-3.157
					c0.179-1.267-0.145-2.528-0.914-3.551C27.915,670.906,26.519,670.21,24.997,670.21z"/>
			</g>
		</g>
	</g>
	<g id="visivel">
		<g>
			<g>
				<path fill="#D52B1E" d="M40.575,624.305c-0.233-0.346-5.821-8.477-15.575-8.477c-9.754,0-15.342,8.131-15.575,8.477
					c-0.283,0.42-0.283,0.969,0,1.389c0.233,0.346,5.821,8.478,15.575,8.478c9.754,0,15.342-8.132,15.575-8.478
					C40.858,625.275,40.858,624.725,40.575,624.305z M25,631.686c-6.851,0-11.476-4.852-12.981-6.688
					c1.5-1.839,6.104-6.683,12.981-6.683c6.851,0,11.476,4.852,12.981,6.688C36.481,626.841,31.877,631.686,25,631.686z"/>
				<path fill="#D52B1E" d="M24.997,620.21c-1.045,0-2.039,0.332-2.876,0.961c-2.11,1.588-2.536,4.597-0.949,6.708
					c0.914,1.215,2.31,1.911,3.832,1.911c1.045,0,2.039-0.332,2.876-0.961c1.023-0.769,1.684-1.89,1.864-3.157
					c0.179-1.267-0.145-2.528-0.914-3.551C27.915,620.906,26.519,620.21,24.997,620.21z"/>
			</g>
		</g>
	</g>
	<g id="oculto_on">
		<g>
			<g>
				<path fill="#96172E" d="M40.575,574.305c-0.233-0.346-5.821-8.477-15.575-8.477c-9.754,0-15.342,8.131-15.575,8.477
					c-0.283,0.42-0.283,0.969,0,1.389c0.233,0.346,5.821,8.478,15.575,8.478c9.754,0,15.342-8.132,15.575-8.478
					C40.858,575.275,40.858,574.725,40.575,574.305z M25,581.686c-6.851,0-11.476-4.852-12.981-6.688
					c1.5-1.839,6.104-6.683,12.981-6.683c6.851,0,11.476,4.852,12.981,6.688C36.481,576.841,31.877,581.686,25,581.686z"/>
				<path fill="#96172E" d="M24.997,570.21c-1.045,0-2.039,0.332-2.876,0.961c-2.11,1.588-2.536,4.597-0.949,6.708
					c0.914,1.215,2.31,1.911,3.832,1.911c1.045,0,2.039-0.332,2.876-0.961c1.023-0.769,1.684-1.89,1.864-3.157
					c0.179-1.267-0.145-2.528-0.914-3.551C27.915,570.906,26.519,570.21,24.997,570.21z"/>
			</g>
		</g>
		
			<line fill="none" stroke="#96172E" stroke-width="4.263" stroke-linecap="round" stroke-miterlimit="10" x1="37.139" y1="562.861" x2="12.861" y2="587.139"/>
	</g>
	<g id="oculto">
		<g>
			<g>
				<path fill="#D52B1E" d="M40.575,524.305c-0.233-0.346-5.821-8.477-15.575-8.477c-9.754,0-15.342,8.131-15.575,8.477
					c-0.283,0.42-0.283,0.969,0,1.389c0.233,0.346,5.821,8.478,15.575,8.478c9.754,0,15.342-8.132,15.575-8.478
					C40.858,525.275,40.858,524.725,40.575,524.305z M25,531.686c-6.851,0-11.476-4.852-12.981-6.688
					c1.5-1.839,6.104-6.683,12.981-6.683c6.851,0,11.476,4.852,12.981,6.688C36.481,526.841,31.877,531.686,25,531.686z"/>
				<path fill="#D52B1E" d="M24.997,520.21c-1.045,0-2.039,0.332-2.876,0.961c-2.11,1.588-2.536,4.597-0.949,6.708
					c0.914,1.215,2.31,1.911,3.832,1.911c1.045,0,2.039-0.332,2.876-0.961c1.023-0.769,1.684-1.89,1.864-3.157
					c0.179-1.267-0.145-2.528-0.914-3.551C27.915,520.906,26.519,520.21,24.997,520.21z"/>
			</g>
		</g>
		
			<line fill="none" stroke="#D52B1E" stroke-width="4.263" stroke-linecap="round" stroke-miterlimit="10" x1="37.139" y1="512.861" x2="12.861" y2="537.139"/>
	</g>
	<g id="tarifa_potencia_on">
		<g>
			<path fill="#96172E" d="M25.001,462.2c-7.071,0-12.801,5.73-12.801,12.8c0,7.069,5.73,12.8,12.801,12.8
				c7.068,0,12.799-5.731,12.799-12.8C37.8,467.93,32.069,462.2,25.001,462.2z M26.224,476.126c-0.663,0.659-1.735,0.656-2.395-0.007
				c-0.659-0.662-0.656-1.734,0.007-2.393c0.399-0.396,0.946-0.551,1.461-0.468l4.421-2.99l-3.018,4.402
				C26.781,475.186,26.622,475.731,26.224,476.126z M33.956,475c0-5.59-4.338-9.553-9.572-9.553c-5.235,0-9.571,4.9-9.571,9.553
				h-0.009c0-6.345,4.743-10.874,10.748-10.874c6.007,0,11.001,5.651,11.001,10.874H33.956z"/>
		</g>
	</g>
	<g id="tarifa_potencia">
		<g>
			<path fill="#D52B1E" d="M25.001,412.2c-7.071,0-12.801,5.73-12.801,12.8c0,7.069,5.73,12.8,12.801,12.8
				c7.068,0,12.799-5.731,12.799-12.8C37.8,417.93,32.069,412.2,25.001,412.2z M26.224,426.126c-0.663,0.659-1.735,0.656-2.395-0.007
				c-0.659-0.662-0.656-1.734,0.007-2.393c0.399-0.396,0.946-0.551,1.461-0.468l4.421-2.99l-3.018,4.402
				C26.781,425.186,26.622,425.731,26.224,426.126z M33.956,425c0-5.59-4.338-9.553-9.572-9.553c-5.235,0-9.571,4.9-9.571,9.553
				h-0.009c0-6.345,4.743-10.874,10.748-10.874c6.007,0,11.001,5.651,11.001,10.874H33.956z"/>
		</g>
	</g>
	<g id="user_on">
		<g>
			<path fill="#96172E" d="M31.221,364.741c0,3.396-2.768,6.147-6.186,6.147c-3.416,0-6.183-2.752-6.183-6.147
				c0-3.393,2.767-6.143,6.183-6.143C28.453,358.599,31.221,361.349,31.221,364.741z"/>
			<path fill="#96172E" d="M33.56,377.491c0.06-3.073-1.222-5.362-3.988-5.362H29.04l-2.389,3.582l-0.796-2.969h-1.494l-0.795,2.969
				l-2.387-3.582h-0.551c-2.769,0-4.307,2.162-4.182,5.362l0.328,13.912h16.462L33.56,377.491z"/>
		</g>
	</g>
	<g id="user">
		<g>
			<path fill="#D52B1E" d="M31.221,314.741c0,3.396-2.768,6.147-6.186,6.147c-3.416,0-6.183-2.752-6.183-6.147
				c0-3.393,2.767-6.143,6.183-6.143C28.453,308.599,31.221,311.349,31.221,314.741z"/>
			<path fill="#D52B1E" d="M33.56,327.491c0.06-3.073-1.222-5.362-3.988-5.362H29.04l-2.389,3.582l-0.796-2.969h-1.494l-0.795,2.969
				l-2.387-3.582h-0.551c-2.769,0-4.307,2.162-4.182,5.362l0.328,13.912h16.462L33.56,327.491z"/>
		</g>
	</g>
	<g id="exportar_on">
		<g>
			<g>
				<path fill="#96172E" d="M36.091,264.469H24.017c-0.571,0-1.036,0.463-1.036,1.034c0,0.573,0.463,1.034,1.036,1.034h12.073
					c1.425,0,2.586,1.161,2.586,2.583v13.387c0,1.425-1.16,2.582-2.586,2.582H14.538c-1.424,0-2.583-1.158-2.583-2.582v-5.441
					c0-0.571-0.461-1.034-1.034-1.034c-0.571,0-1.034,0.463-1.034,1.034v5.441c0,2.566,2.086,4.654,4.651,4.654h21.553
					c2.566,0,4.655-2.088,4.655-4.654v-13.388C40.744,266.556,38.657,264.469,36.091,264.469z M14.239,272.919
					c0.194,0,0.389-0.055,0.564-0.168c0.479-0.312,0.614-0.952,0.303-1.43l-2.66-4.086c8.403,1.045,11.864,10.09,11.896,10.184
					c0.154,0.42,0.552,0.68,0.974,0.68c0.116,0,0.233-0.019,0.35-0.061c0.535-0.194,0.814-0.785,0.622-1.32
					c-0.157-0.434-3.769-10.135-13.116-11.543l3.749-2.438c0.481-0.313,0.614-0.952,0.305-1.43c-0.314-0.481-0.958-0.611-1.431-0.304
					l-6.07,3.945c-0.229,0.15-0.391,0.384-0.449,0.651c-0.056,0.269-0.004,0.55,0.147,0.779l3.95,6.067
					C13.571,272.754,13.901,272.919,14.239,272.919z"/>
			</g>
		</g>
	</g>
	<g id="exportar">
		<g>
			<g>
				<path fill="#D52B1E" d="M36.091,214.469H24.017c-0.571,0-1.036,0.463-1.036,1.034c0,0.573,0.463,1.034,1.036,1.034h12.073
					c1.425,0,2.586,1.161,2.586,2.583v13.387c0,1.425-1.16,2.582-2.586,2.582H14.538c-1.424,0-2.583-1.158-2.583-2.582v-5.441
					c0-0.571-0.461-1.034-1.034-1.034c-0.571,0-1.034,0.463-1.034,1.034v5.441c0,2.566,2.086,4.654,4.651,4.654h21.553
					c2.566,0,4.655-2.088,4.655-4.654v-13.388C40.744,216.556,38.657,214.469,36.091,214.469z M14.239,222.919
					c0.194,0,0.389-0.055,0.564-0.168c0.479-0.312,0.614-0.952,0.303-1.43l-2.66-4.086c8.403,1.045,11.864,10.09,11.896,10.184
					c0.154,0.42,0.552,0.68,0.974,0.68c0.116,0,0.233-0.019,0.35-0.061c0.535-0.194,0.814-0.785,0.622-1.32
					c-0.157-0.434-3.769-10.135-13.116-11.543l3.749-2.438c0.481-0.312,0.614-0.952,0.305-1.43c-0.314-0.481-0.958-0.611-1.431-0.304
					l-6.07,3.945c-0.229,0.15-0.391,0.384-0.449,0.651c-0.056,0.269-0.004,0.55,0.147,0.779l3.95,6.067
					C13.571,222.754,13.901,222.919,14.239,222.919z"/>
			</g>
		</g>
	</g>
	<g id="leituras_em_bloco_on">
		<g>
			<g>
				<path fill="#96172E" d="M11.936,185.186l25.541-17.864h0.001c0.006-0.004,0.014-0.005,0.019-0.01
					c0.022-0.015,0.046-0.022,0.069-0.034c0.025-0.015,0.051-0.028,0.077-0.039c0.034-0.015,0.066-0.025,0.101-0.035
					c0.031-0.008,0.061-0.012,0.093-0.017c0.019-0.004,0.041-0.009,0.061-0.011c0.01-0.001,0.019-0.005,0.029-0.006
					c0.039-0.001,0.077,0.007,0.115,0.011c0.031,0.003,0.06,0.003,0.091,0.009c0.026,0.005,0.053,0.013,0.078,0.021
					c0.028,0.009,0.054,0.021,0.082,0.033c0.034,0.015,0.071,0.022,0.103,0.042c0.005,0.003,0.01,0.008,0.015,0.011
					c0.003,0.002,0.008,0.002,0.011,0.005c0.012,0.007,0.018,0.019,0.028,0.027c0.016,0.011,0.03,0.023,0.044,0.035
					c0.014,0.011,0.03,0.014,0.044,0.025c0.006,0.005,0.009,0.015,0.016,0.021c0.029,0.028,0.055,0.061,0.08,0.093
					c0.018,0.024,0.034,0.046,0.05,0.071c0.016,0.025,0.034,0.049,0.048,0.075c0.008,0.018,0.011,0.037,0.018,0.054
					c0.013,0.031,0.023,0.061,0.032,0.093c0.005,0.016,0.013,0.032,0.017,0.048c0.006,0.029,0.005,0.058,0.008,0.089
					c0.004,0.031,0.005,0.061,0.005,0.092c0,0.026,0.006,0.053,0.004,0.08l-2.552,25.522c-0.027,0.284-0.197,0.535-0.448,0.667
					c-0.253,0.134-0.554,0.131-0.807-0.005l-9.367-5.106c-0.021-0.012-0.034-0.03-0.054-0.044l-3.078,4.859
					c-0.027,0.044-0.063,0.08-0.096,0.117c-0.012,0.013-0.019,0.025-0.031,0.037c-0.07,0.068-0.151,0.12-0.237,0.159
					c-0.019,0.01-0.039,0.016-0.06,0.024c-0.094,0.035-0.193,0.058-0.294,0.059h-0.001l0,0h-0.001c-0.099,0-0.197-0.024-0.292-0.059
					c-0.028-0.011-0.054-0.023-0.08-0.036c-0.027-0.014-0.057-0.02-0.083-0.036c-0.026-0.017-0.041-0.044-0.064-0.063
					c-0.046-0.036-0.088-0.074-0.126-0.12c-0.034-0.043-0.063-0.085-0.089-0.132c-0.026-0.047-0.048-0.094-0.064-0.146
					c-0.018-0.057-0.027-0.111-0.034-0.17c-0.003-0.031-0.018-0.057-0.018-0.09v-6.808h-8.515c-0.372,0-0.701-0.241-0.812-0.594
					C11.5,185.785,11.631,185.398,11.936,185.186z M22.643,190.607l13.082-20.831L22.643,185.1L22.643,190.607z"/>
			</g>
			<g>
				<g>
					<path fill="none" stroke="#96172E" stroke-width="1.652" stroke-miterlimit="10" d="M25.195,177.339H10.953
						c-1.139,0-2.063-0.924-2.063-2.063v-12.552c0-1.139,0.924-2.063,2.063-2.063h14.959c1.139,0,2.063,0.924,2.063,2.063v12.693"/>
				</g>
				<g>
					<path fill="none" stroke="#96172E" stroke-width="1.652" stroke-miterlimit="10" d="M20.911,180.78H14.6
						c-1.139,0-2.063-0.924-2.063-2.063v-1.294"/>
					<path fill="none" stroke="#96172E" stroke-width="1.652" stroke-miterlimit="10" d="M27.687,164.101h1.872
						c1.139,0,2.063,0.924,2.063,2.063v6.276"/>
				</g>
				<g>
					<path fill="none" stroke="#96172E" stroke-width="1.652" stroke-miterlimit="10" d="M19.58,183.911h-1.849
						c-1.139,0-2.063-0.924-2.063-2.063v-1.294"/>
					<path fill="none" stroke="#96172E" stroke-width="1.652" stroke-miterlimit="10" d="M30.818,167.233h1.872
						c1.139,0,2.063,0.924,2.063,2.063v0.664"/>
				</g>
				<path fill="#96172E" d="M25.12,163.384H11.744c-0.258,0-0.468,0.211-0.468,0.468v7.529c0,0.257,0.211,0.468,0.468,0.468H25.12
					c0.257,0,0.468-0.211,0.468-0.468v-7.529C25.589,163.595,25.378,163.384,25.12,163.384z M15.94,170.369H13.1v-5.009h2.84V170.369
					z M19.818,170.369h-2.84v-5.009h2.84V170.369z M23.696,170.369h-2.84v-5.009h2.84V170.369z"/>
			</g>
		</g>
	</g>
	<g id="leituras_em_bloco">
		<g>
			<g>
				<path fill="#D52B1E" d="M11.936,135.186l25.541-17.864h0.001c0.006-0.004,0.014-0.005,0.019-0.01
					c0.022-0.015,0.046-0.022,0.069-0.034c0.025-0.015,0.051-0.028,0.077-0.039c0.034-0.015,0.066-0.025,0.101-0.035
					c0.031-0.008,0.061-0.012,0.093-0.017c0.019-0.004,0.041-0.009,0.061-0.011c0.01-0.001,0.019-0.005,0.029-0.006
					c0.039-0.001,0.077,0.007,0.115,0.011c0.031,0.003,0.06,0.003,0.091,0.009c0.026,0.005,0.053,0.013,0.078,0.021
					c0.028,0.009,0.054,0.021,0.082,0.033c0.034,0.015,0.071,0.022,0.103,0.042c0.005,0.003,0.01,0.008,0.015,0.011
					c0.003,0.002,0.008,0.002,0.011,0.005c0.012,0.007,0.018,0.019,0.028,0.027c0.016,0.011,0.03,0.023,0.044,0.035
					c0.014,0.011,0.03,0.014,0.044,0.025c0.006,0.005,0.009,0.015,0.016,0.021c0.029,0.028,0.055,0.061,0.08,0.093
					c0.018,0.024,0.034,0.046,0.05,0.071c0.016,0.025,0.034,0.049,0.048,0.075c0.008,0.018,0.011,0.037,0.018,0.054
					c0.013,0.031,0.023,0.061,0.032,0.093c0.005,0.016,0.013,0.032,0.017,0.048c0.006,0.029,0.005,0.058,0.008,0.089
					c0.004,0.031,0.005,0.061,0.005,0.092c0,0.026,0.006,0.053,0.004,0.08l-2.552,25.522c-0.027,0.284-0.197,0.535-0.448,0.667
					c-0.253,0.134-0.554,0.131-0.807-0.005l-9.367-5.106c-0.021-0.012-0.034-0.03-0.054-0.044l-3.078,4.859
					c-0.027,0.044-0.063,0.08-0.096,0.117c-0.012,0.013-0.019,0.025-0.031,0.037c-0.07,0.068-0.151,0.12-0.237,0.159
					c-0.019,0.01-0.039,0.016-0.06,0.024c-0.094,0.035-0.193,0.058-0.294,0.059h-0.001l0,0h-0.001c-0.099,0-0.197-0.024-0.292-0.059
					c-0.028-0.011-0.054-0.023-0.08-0.036c-0.027-0.014-0.057-0.02-0.083-0.036c-0.026-0.017-0.041-0.044-0.064-0.063
					c-0.046-0.036-0.088-0.074-0.126-0.12c-0.034-0.043-0.063-0.085-0.089-0.132c-0.026-0.047-0.048-0.094-0.064-0.146
					c-0.018-0.057-0.027-0.111-0.034-0.17c-0.003-0.031-0.018-0.057-0.018-0.09v-6.808h-8.515c-0.372,0-0.701-0.241-0.812-0.594
					C11.5,135.785,11.631,135.398,11.936,135.186z M22.643,140.607l13.082-20.831L22.643,135.1L22.643,140.607z"/>
			</g>
			<g>
				<g>
					<path fill="none" stroke="#D52B1E" stroke-width="1.652" stroke-miterlimit="10" d="M25.195,127.339H10.953
						c-1.139,0-2.063-0.924-2.063-2.063v-12.552c0-1.139,0.924-2.063,2.063-2.063h14.959c1.139,0,2.063,0.924,2.063,2.063v12.693"/>
				</g>
				<g>
					<path fill="none" stroke="#D52B1E" stroke-width="1.652" stroke-miterlimit="10" d="M20.911,130.78H14.6
						c-1.139,0-2.063-0.924-2.063-2.063v-1.294"/>
					<path fill="none" stroke="#D52B1E" stroke-width="1.652" stroke-miterlimit="10" d="M27.687,114.101h1.872
						c1.139,0,2.063,0.924,2.063,2.063v6.276"/>
				</g>
				<g>
					<path fill="none" stroke="#D52B1E" stroke-width="1.652" stroke-miterlimit="10" d="M19.58,133.911h-1.849
						c-1.139,0-2.063-0.924-2.063-2.063v-1.294"/>
					<path fill="none" stroke="#D52B1E" stroke-width="1.652" stroke-miterlimit="10" d="M30.818,117.233h1.872
						c1.139,0,2.063,0.924,2.063,2.063v0.664"/>
				</g>
				<path fill="#D52B1E" d="M25.12,113.384H11.744c-0.258,0-0.468,0.211-0.468,0.468v7.529c0,0.257,0.211,0.468,0.468,0.468H25.12
					c0.257,0,0.468-0.211,0.468-0.468v-7.529C25.589,113.595,25.378,113.384,25.12,113.384z M15.94,120.369H13.1v-5.009h2.84V120.369
					z M19.818,120.369h-2.84v-5.009h2.84V120.369z M23.696,120.369h-2.84v-5.009h2.84V120.369z"/>
			</g>
		</g>
	</g>
	<g id="adicionar_contrato_on">
		<g>
			<path fill="#96172E" d="M15.528,85.441c-0.878,0-1.593-0.713-1.593-1.591V63.912c0-0.876,0.174-1.592,1.052-1.592H27.85v3.14
				c0,1.581,1.287,2.867,2.868,2.867h3.05v6.067c1.135,0.315,1.822,0.671,2.22,0.96l0.002-8.123l-7.131-7.131H14.583
				c-1.581,0-2.867,1.286-2.868,2.865v21.828c0,1.581,1.287,2.867,2.868,2.867h9.312c-0.289-0.398-0.875-1.227-0.954-2.221H15.528z"
				/>
			<path fill="#96172E" d="M31.556,76.441c-3.716,0-6.729,3.013-6.729,6.729c0,3.716,3.013,6.729,6.729,6.729
				s6.729-3.013,6.729-6.729C38.285,79.454,35.272,76.441,31.556,76.441z M34.983,84.606h-1.991v1.991
				c0,0.79-0.646,1.436-1.436,1.436c-0.79,0-1.436-0.646-1.436-1.436v-1.991h-1.991c-0.79,0-1.436-0.646-1.436-1.436
				c0-0.79,0.646-1.436,1.436-1.436h1.991v-1.991c0-0.79,0.646-1.436,1.436-1.436c0.79,0,1.436,0.646,1.436,1.436v1.991h1.991
				c0.79,0,1.436,0.646,1.436,1.436C36.42,83.96,35.773,84.606,34.983,84.606z"/>
		</g>
	</g>
	<g id="adicionar_contrato">
		<g>
			<path fill="#D52B1E" d="M15.528,35.441c-0.878,0-1.593-0.713-1.593-1.591V13.912c0-0.876,0.174-1.592,1.052-1.592H27.85v3.14
				c0,1.581,1.287,2.867,2.868,2.867h3.05v6.067c1.135,0.315,1.822,0.671,2.22,0.96l0.002-8.123l-7.131-7.131H14.583
				c-1.581,0-2.867,1.286-2.868,2.865v21.828c0,1.581,1.287,2.867,2.868,2.867h9.312c-0.289-0.398-0.875-1.227-0.954-2.221H15.528z"
				/>
			<path fill="#D52B1E" d="M31.556,26.441c-3.716,0-6.729,3.013-6.729,6.729c0,3.716,3.013,6.729,6.729,6.729
				s6.729-3.013,6.729-6.729C38.285,29.454,35.272,26.441,31.556,26.441z M34.983,34.606h-1.991v1.991
				c0,0.79-0.646,1.436-1.436,1.436c-0.79,0-1.436-0.646-1.436-1.436v-1.991h-1.991c-0.79,0-1.436-0.646-1.436-1.436
				c0-0.79,0.646-1.436,1.436-1.436h1.991v-1.991c0-0.79,0.646-1.436,1.436-1.436c0.79,0,1.436,0.646,1.436,1.436v1.991h1.991
				c0.79,0,1.436,0.646,1.436,1.436C36.42,33.96,35.773,34.606,34.983,34.606z"/>
		</g>
	</g>
	<g id="olho_branco">
		<g>
			<g>
				<path fill="#FFFFFF" d="M40.575,1324.305c-0.233-0.346-5.821-8.477-15.575-8.477c-9.754,0-15.342,8.131-15.575,8.477
					c-0.283,0.42-0.283,0.969,0,1.389c0.233,0.346,5.821,8.478,15.575,8.478c9.754,0,15.342-8.132,15.575-8.478
					C40.858,1325.275,40.858,1324.725,40.575,1324.305z M25,1331.686c-6.851,0-11.476-4.852-12.981-6.688
					c1.5-1.839,6.104-6.683,12.981-6.683c6.851,0,11.476,4.852,12.981,6.688C36.481,1326.841,31.877,1331.686,25,1331.686z"/>
				<path fill="#FFFFFF" d="M24.997,1320.21c-1.045,0-2.039,0.332-2.876,0.961c-2.11,1.588-2.536,4.597-0.949,6.708
					c0.914,1.215,2.31,1.911,3.832,1.911c1.045,0,2.039-0.332,2.876-0.961c1.023-0.769,1.684-1.89,1.864-3.157
					c0.179-1.267-0.145-2.528-0.914-3.551C27.915,1320.906,26.519,1320.21,24.997,1320.21z"/>
			</g>
		</g>
	</g>
	<g id="mensagens_B2B_on">
		<g>
			<g>
				<path fill="#D52B1E" d="M38.383,1515.682c-0.089-0.013-0.169-0.053-0.263-0.053H11.881c-0.059,0-0.107,0.027-0.163,0.032
					l13.286,11.835L38.383,1515.682z M39.866,1516.873l-9.448,8.343l9.327,8.162c0.146-0.266,0.249-0.557,0.249-0.881v-14.994
					C39.994,1517.279,39.939,1517.073,39.866,1516.873z M10.152,1516.778c-0.093,0.224-0.146,0.469-0.146,0.725v14.994
					c0,0.274,0.066,0.528,0.17,0.763l9.418-8.073L10.152,1516.778z M24.996,1530l-3.991-3.555l-9.224,7.905
					c0.033,0.002,0.064,0.021,0.1,0.021h26.154l-9.033-7.905L24.996,1530z"/>
			</g>
		</g>
	</g>
	<g id="mensagens_B2B_1_">
		<g>
			<g>
				<path fill="#FFFFFF" d="M38.383,1465.682c-0.089-0.013-0.169-0.053-0.263-0.053H11.881c-0.059,0-0.107,0.027-0.163,0.032
					l13.286,11.835L38.383,1465.682z M39.866,1466.873l-9.448,8.343l9.327,8.162c0.146-0.266,0.249-0.557,0.249-0.881v-14.994
					C39.994,1467.279,39.939,1467.073,39.866,1466.873z M10.152,1466.778c-0.093,0.224-0.146,0.469-0.146,0.725v14.994
					c0,0.274,0.066,0.528,0.17,0.763l9.418-8.073L10.152,1466.778z M24.996,1480l-3.991-3.555l-9.224,7.905
					c0.033,0.002,0.064,0.021,0.1,0.021h26.154l-9.033-7.905L24.996,1480z"/>
			</g>
		</g>
	</g>
	<g id="mensagens_B2C_on">
		<g>
			<g>
				<path fill="#96172E" d="M38.383,1415.682c-0.089-0.013-0.169-0.053-0.263-0.053H11.881c-0.059,0-0.107,0.027-0.163,0.032
					l13.286,11.835L38.383,1415.682z M39.866,1416.873l-9.448,8.343l9.327,8.162c0.146-0.266,0.249-0.557,0.249-0.881v-14.994
					C39.994,1417.279,39.939,1417.073,39.866,1416.873z M10.152,1416.778c-0.093,0.224-0.146,0.469-0.146,0.725v14.994
					c0,0.274,0.066,0.528,0.17,0.763l9.418-8.073L10.152,1416.778z M24.996,1430l-3.991-3.555l-9.224,7.905
					c0.033,0.002,0.064,0.021,0.1,0.021h26.154l-9.033-7.905L24.996,1430z"/>
			</g>
		</g>
	</g>
	<g id="mensagens_B2C">
		<g>
			<g>
				<path fill="#999999" d="M38.383,1365.682c-0.089-0.013-0.169-0.053-0.263-0.053H11.881c-0.059,0-0.107,0.027-0.163,0.032
					l13.286,11.835L38.383,1365.682z M39.866,1366.873l-9.448,8.343l9.327,8.162c0.146-0.266,0.249-0.557,0.249-0.881v-14.994
					C39.994,1367.279,39.939,1367.073,39.866,1366.873z M10.152,1366.778c-0.093,0.224-0.146,0.469-0.146,0.725v14.994
					c0,0.274,0.066,0.528,0.17,0.763l9.418-8.073L10.152,1366.778z M24.996,1380l-3.991-3.555l-9.224,7.905
					c0.033,0.002,0.064,0.021,0.1,0.021h26.154l-9.033-7.905L24.996,1380z"/>
			</g>
		</g>
	</g>
	<g id="outro_nif_cinza">
		<g>
			<path fill="#999999" d="M85.827,14.291l0.009-0.009l-4.211-4.21l-0.013,0.013v-0.013H64.136V33.61h4.627v6.318l4.426-3.291
				l4.344,3.036V33.61h8.33V14.291H85.827z M76.773,38.137l-3.584-2.64l-3.583,2.64v-9.053h7.167V38.137z M76.811,26.369h-7.243
				V25.01h7.243V26.369z M80.432,22.747H69.568v-1.358h10.864V22.747z M80.432,19.126H69.568v-1.358h10.864V19.126z M81.613,14.291
				v-2.952l2.952,2.952H81.613z"/>
		</g>
	</g>
	<g id="outro_nif">
		<g>
			<path fill="#D52B1E" d="M85.827,64.291l0.009-0.009l-4.211-4.21l-0.013,0.013v-0.013H64.136V83.61h4.627v6.318l4.426-3.291
				l4.344,3.036V83.61h8.33V64.291H85.827z M76.773,88.137l-3.584-2.64l-3.583,2.64v-9.053h7.167V88.137z M76.811,76.369h-7.243
				V75.01h7.243V76.369z M80.432,72.747H69.568v-1.358h10.864V72.747z M80.432,69.126H69.568v-1.358h10.864V69.126z M81.613,64.291
				v-2.952l2.952,2.952H81.613z"/>
		</g>
	</g>
	<g id="outro_nif_on">
		<g>
			<path fill="#96172E" d="M85.827,114.291l0.009-0.009l-4.211-4.21l-0.013,0.013v-0.013H64.136v23.538h4.627v6.318l4.426-3.291
				l4.344,3.036v-6.064h8.33v-19.319H85.827z M76.773,138.137l-3.584-2.64l-3.583,2.64v-9.053h7.167V138.137z M76.811,126.369h-7.243
				v-1.358h7.243V126.369z M80.432,122.747H69.568v-1.358h10.864V122.747z M80.432,119.126H69.568v-1.358h10.864V119.126z
				 M81.613,114.291v-2.952l2.952,2.952H81.613z"/>
		</g>
	</g>
	<g id="outra_conta_cinza">
		<g>
			<path fill="#999999" d="M70.094,181.227c0.971-0.406,3.014-1.125,4.716-1.671c0.215-0.069,0.425-0.136,0.627-0.198
				c0.027-0.008,0.053-0.017,0.08-0.025c0.196-0.061,0.387-0.119,0.564-0.171c0.154-0.048,0.179-0.056,0.179-0.698
				c0-0.132-0.014-0.265-0.037-0.397c-0.015-0.084-0.04-0.167-0.063-0.25c-0.013-0.046-0.021-0.094-0.035-0.14
				c-0.022-0.069-0.049-0.134-0.074-0.202c-0.068-0.183-0.143-0.362-0.222-0.527c-0.057-0.122-0.118-0.266-0.177-0.423
				c-0.019-0.051-0.036-0.11-0.055-0.163c-0.04-0.114-0.081-0.225-0.118-0.348c-0.019-0.062-0.033-0.128-0.051-0.191
				c-0.034-0.121-0.069-0.241-0.097-0.366c-0.029-0.123-0.047-0.247-0.068-0.37c-0.011-0.065-0.027-0.131-0.036-0.196v-0.001h-0.001
				c-0.102-0.119-0.219-0.282-0.338-0.502c-0.014-0.028-0.029-0.061-0.044-0.09c-0.025-0.049-0.05-0.095-0.074-0.149
				c-0.036-0.08-0.073-0.168-0.108-0.26c-0.003-0.007-0.006-0.013-0.009-0.02c-0.036-0.094-0.071-0.195-0.105-0.302
				c-0.003-0.009-0.006-0.015-0.008-0.024c-0.034-0.107-0.067-0.224-0.098-0.346c-0.003-0.009-0.005-0.018-0.008-0.028
				c-0.034-0.133-0.066-0.274-0.096-0.424c-0.025-0.127-0.046-0.244-0.063-0.352c-0.003-0.024-0.005-0.045-0.009-0.068
				c-0.012-0.083-0.023-0.163-0.03-0.236c-0.003-0.025-0.004-0.047-0.006-0.071c-0.005-0.063-0.009-0.125-0.012-0.181
				c-0.001-0.031-0.001-0.061-0.001-0.091c0-0.041,0.001-0.08,0.002-0.117c0.002-0.042,0.004-0.083,0.008-0.122
				c0.002-0.019,0.004-0.038,0.006-0.056c0.006-0.049,0.013-0.097,0.023-0.143c0.001-0.007,0.002-0.014,0.004-0.02
				c0.01-0.048,0.023-0.096,0.036-0.142c0.002-0.008,0.004-0.016,0.007-0.024c0.012-0.039,0.026-0.077,0.04-0.116
				c0.008-0.02,0.014-0.041,0.022-0.061c0.001-0.002,0.002-0.004,0.002-0.007l0.008-0.021c0.011-0.028,0.021-0.057,0.03-0.085
				l0.001-0.004c0.003-0.018,0.004-0.049,0.007-0.073c0.002-0.023,0.005-0.038,0.007-0.067c0.015-0.313-0.022-0.948-0.098-1.591
				c-0.001-0.005-0.001-0.011-0.002-0.017c-0.012-0.1-0.025-0.198-0.039-0.297c-0.005-0.035-0.009-0.07-0.014-0.105
				c-0.017-0.111-0.034-0.218-0.053-0.323c-0.003-0.018-0.006-0.036-0.009-0.054c-0.015-0.086-0.026-0.184-0.033-0.293
				c-0.025-0.46,0.055-1.103,0.303-1.773c0.159-0.428,0.383-0.867,0.704-1.278c0.003-0.004,0.007-0.007,0.009-0.011
				c0.089-0.113,0.184-0.219,0.282-0.321c0.055-0.057,0.115-0.114,0.176-0.17c0.046-0.044,0.093-0.086,0.14-0.127
				c0.085-0.073,0.176-0.145,0.273-0.216c0.026-0.019,0.052-0.037,0.078-0.056c0.115-0.08,0.237-0.158,0.368-0.233
				c0.017-0.009,0.033-0.018,0.05-0.028c0.137-0.075,0.284-0.147,0.44-0.213c0.022-0.009,0.044-0.019,0.066-0.028
				c0.15-0.061,0.31-0.116,0.476-0.167c0.036-0.01,0.072-0.023,0.109-0.033c0.162-0.045,0.335-0.083,0.513-0.117
				c0.044-0.008,0.085-0.018,0.13-0.025c0.222-0.037,0.455-0.066,0.704-0.081l0.576,0.001l0.528,0.001h0.036
				c0.136,0.008,0.257,0.029,0.384,0.045c0.12,0.014,0.245,0.024,0.358,0.044c0.116,0.02,0.219,0.05,0.328,0.076
				c0.104,0.024,0.214,0.044,0.313,0.073c0.106,0.031,0.201,0.07,0.3,0.106c0.088,0.032,0.182,0.06,0.265,0.095
				c0.098,0.041,0.184,0.088,0.275,0.133c0.072,0.036,0.15,0.069,0.218,0.108c0.09,0.051,0.169,0.105,0.251,0.159
				c0.057,0.037,0.121,0.072,0.174,0.111c0.089,0.063,0.166,0.13,0.245,0.195c0.038,0.031,0.082,0.062,0.117,0.094
				c0.09,0.079,0.17,0.16,0.248,0.24c0.017,0.019,0.039,0.036,0.055,0.055c0.092,0.099,0.175,0.196,0.249,0.291
				c0.942,1.204,1.099,2.66,0.974,3.343c-0.005,0.028-0.009,0.056-0.014,0.084c-0.016,0.091-0.031,0.184-0.046,0.28
				c-0.054,0.363-0.094,0.737-0.12,1.076c-0.002,0.02-0.003,0.04-0.005,0.059c-0.006,0.084-0.011,0.162-0.015,0.24
				c-0.002,0.037-0.005,0.075-0.007,0.11c-0.003,0.072-0.005,0.134-0.007,0.197c-0.001,0.031-0.002,0.064-0.003,0.093
				c-0.002,0.086-0.001,0.16,0.001,0.222c0,0.001,0,0.003,0,0.004c0.002,0.066,0.006,0.119,0.013,0.153
				c0.001,0.002,0.001,0.006,0.001,0.008v0.002c0.011,0.041,0.025,0.078,0.041,0.115c0.082,0.212,0.136,0.424,0.147,0.7
				c0,0.008,0,0.015,0,0.023c0.002,0.058,0.002,0.12-0.001,0.185c-0.001,0.033-0.004,0.071-0.007,0.107
				c-0.003,0.046-0.006,0.091-0.011,0.14c-0.007,0.06-0.015,0.126-0.025,0.192c-0.005,0.036-0.008,0.068-0.014,0.105
				c-0.017,0.108-0.037,0.224-0.063,0.35c-0.21,1.05-0.524,1.662-0.781,2.01c-0.037,0.05-0.073,0.094-0.107,0.134
				c-0.042,0.318-0.119,0.648-0.208,0.964c-0.015,0.053-0.027,0.109-0.043,0.16c-0.03,0.1-0.063,0.188-0.095,0.282
				c-0.026,0.076-0.051,0.159-0.078,0.229c-0.06,0.157-0.12,0.3-0.177,0.422c-0.042,0.09-0.079,0.188-0.11,0.295
				c-0.006,0.019-0.008,0.042-0.013,0.062c-0.024,0.091-0.047,0.184-0.064,0.289c-0.008,0.048-0.011,0.105-0.017,0.155
				c-0.01,0.084-0.023,0.164-0.029,0.257c-0.01,0.149-0.015,0.309-0.015,0.481c0,0.426,0.012,0.571,0.061,0.635
				c0.002,0.003,0.003,0.011,0.004,0.014c0.003,0.003,0.017,0.011,0.038,0.021c0.018,0.01,0.039,0.018,0.065,0.026
				c0.117,0.035,0.238,0.071,0.362,0.109c0.72,0.221,1.563,0.503,2.388,0.791c0.028,0.01,0.057,0.02,0.085,0.03
				c0.091,0.033,0.182,0.064,0.272,0.097c0.051,0.018,0.101,0.035,0.151,0.053c0.06,0.021,0.117,0.042,0.176,0.063
				c0.081,0.029,0.163,0.058,0.242,0.087c0.024,0.009,0.046,0.017,0.07,0.026c0.112,0.04,0.223,0.08,0.331,0.121
				c0.016,0.006,0.031,0.012,0.047,0.018c0.504,0.186,0.964,0.362,1.335,0.512c0.191,0.077,0.359,0.147,0.498,0.208
				c0.101,0.044,0.192,0.092,0.277,0.143c0.033,0.021,0.063,0.044,0.095,0.066c0.047,0.032,0.093,0.065,0.134,0.099
				c0.035,0.029,0.068,0.061,0.1,0.093c0.03,0.03,0.06,0.059,0.087,0.09c0.033,0.037,0.062,0.076,0.09,0.115
				c0.02,0.029,0.04,0.057,0.058,0.086c0.027,0.044,0.052,0.089,0.074,0.136c0.013,0.028,0.027,0.056,0.039,0.084
				c0.02,0.05,0.039,0.101,0.055,0.154c0.009,0.028,0.018,0.056,0.024,0.084c0.014,0.056,0.025,0.115,0.034,0.174
				c0.004,0.026,0.01,0.053,0.013,0.08c0.01,0.085,0.016,0.172,0.016,0.263c0,0.591,0,2.302,0,2.775c0,0.016,0,0.034,0,0.047
				c0,0.4-0.238,1.082-1.094,1.082c-0.008,0-0.025,0-0.034,0c-0.761,0-5.931,0-8.3,0c-0.718,0-1.181,0-1.181,0h-0.206
				c0,0-0.471,0-1.2,0c-2.372,0-7.516,0-8.294,0c-0.012,0-0.031,0-0.04,0c-0.8,0-1.057-0.591-1.088-0.996l-0.001-0.13l-0.006-2.775
				C68.792,182.376,69.195,181.613,70.094,181.227z"/>
			<path fill="#999999" d="M60.814,180.05c1-0.418,3.361-1.238,4.822-1.669c0.125-0.04,0.144-0.046,0.144-0.565
				c0-0.429-0.177-0.86-0.349-1.226c-0.186-0.397-0.407-1.064-0.486-1.663c-0.222-0.257-0.524-0.766-0.718-1.734
				c-0.17-0.853-0.091-1.163,0.023-1.455c0.011-0.031,0.024-0.061,0.033-0.091c0.043-0.201-0.016-1.24-0.162-2.047
				c-0.101-0.553,0.026-1.729,0.788-2.704c0.481-0.614,1.4-1.37,3.081-1.475h0.921c1.652,0.105,2.573,0.86,3.053,1.475
				c0.762,0.974,0.888,2.151,0.788,2.704c-0.147,0.807-0.204,1.846-0.163,2.042c0.009,0.034,0.021,0.065,0.033,0.095
				c0.112,0.292,0.193,0.602,0.022,1.455c-0.193,0.968-0.495,1.476-0.718,1.734c-0.079,0.599-0.3,1.266-0.487,1.663
				c-0.136,0.29-0.201,0.686-0.201,1.244c0,0.519,0.02,0.525,0.137,0.562c0.497,0.147,1.09,0.339,1.694,0.546
				c-1.347,0.456-2.684,0.94-3.421,1.248c-1.371,0.588-1.985,1.818-1.985,2.778l0.003,1.641c-0.093,0-0.192,0-0.301,0
				c-1.944,0-6.187,0-6.719,0c-0.692,0-0.884-0.552-0.884-0.875c0-0.323,0-1.787,0-2.281
				C59.763,180.958,60.104,180.354,60.814,180.05z"/>
		</g>
	</g>
	<g id="outra_conta">
		<g>
			<path fill="#D52B1E" d="M70.094,231.227c0.971-0.406,3.014-1.125,4.716-1.671c0.215-0.069,0.425-0.136,0.627-0.198
				c0.027-0.008,0.053-0.017,0.08-0.025c0.196-0.061,0.387-0.119,0.564-0.171c0.154-0.048,0.179-0.056,0.179-0.698
				c0-0.132-0.014-0.265-0.037-0.397c-0.015-0.084-0.04-0.167-0.063-0.25c-0.013-0.046-0.021-0.094-0.035-0.14
				c-0.022-0.069-0.049-0.134-0.074-0.202c-0.068-0.183-0.143-0.362-0.222-0.527c-0.057-0.122-0.118-0.266-0.177-0.423
				c-0.019-0.051-0.036-0.11-0.055-0.163c-0.04-0.114-0.081-0.225-0.118-0.348c-0.019-0.062-0.033-0.128-0.051-0.191
				c-0.034-0.121-0.069-0.241-0.097-0.366c-0.029-0.123-0.047-0.247-0.068-0.37c-0.011-0.065-0.027-0.131-0.036-0.196v-0.001h-0.001
				c-0.102-0.119-0.219-0.282-0.338-0.502c-0.014-0.028-0.029-0.061-0.044-0.09c-0.025-0.049-0.05-0.095-0.074-0.149
				c-0.036-0.08-0.073-0.168-0.108-0.26c-0.003-0.007-0.006-0.013-0.009-0.02c-0.036-0.094-0.071-0.195-0.105-0.302
				c-0.003-0.009-0.006-0.015-0.008-0.024c-0.034-0.107-0.067-0.224-0.098-0.346c-0.003-0.009-0.005-0.018-0.008-0.028
				c-0.034-0.133-0.066-0.274-0.096-0.424c-0.025-0.127-0.046-0.244-0.063-0.352c-0.003-0.024-0.005-0.045-0.009-0.068
				c-0.012-0.083-0.023-0.163-0.03-0.236c-0.003-0.025-0.004-0.047-0.006-0.071c-0.005-0.063-0.009-0.125-0.012-0.181
				c-0.001-0.031-0.001-0.061-0.001-0.091c0-0.041,0.001-0.08,0.002-0.117c0.002-0.042,0.004-0.083,0.008-0.122
				c0.002-0.019,0.004-0.038,0.006-0.056c0.006-0.049,0.013-0.097,0.023-0.143c0.001-0.007,0.002-0.014,0.004-0.02
				c0.01-0.048,0.023-0.096,0.036-0.142c0.002-0.008,0.004-0.016,0.007-0.024c0.012-0.039,0.026-0.077,0.04-0.116
				c0.008-0.02,0.014-0.041,0.022-0.061c0.001-0.002,0.002-0.004,0.002-0.007l0.008-0.021c0.011-0.028,0.021-0.057,0.03-0.085
				l0.001-0.004c0.003-0.018,0.004-0.049,0.007-0.073c0.002-0.023,0.005-0.038,0.007-0.067c0.015-0.313-0.022-0.948-0.098-1.591
				c-0.001-0.005-0.001-0.011-0.002-0.017c-0.012-0.1-0.025-0.198-0.039-0.297c-0.005-0.035-0.009-0.07-0.014-0.105
				c-0.017-0.111-0.034-0.218-0.053-0.323c-0.003-0.018-0.006-0.036-0.009-0.054c-0.015-0.086-0.026-0.184-0.033-0.293
				c-0.025-0.46,0.055-1.103,0.303-1.773c0.159-0.428,0.383-0.867,0.704-1.278c0.003-0.004,0.007-0.007,0.009-0.011
				c0.089-0.113,0.184-0.219,0.282-0.321c0.055-0.057,0.115-0.114,0.176-0.17c0.046-0.044,0.093-0.086,0.14-0.127
				c0.085-0.073,0.176-0.145,0.273-0.216c0.026-0.019,0.052-0.037,0.078-0.056c0.115-0.08,0.237-0.158,0.368-0.233
				c0.017-0.009,0.033-0.018,0.05-0.028c0.137-0.075,0.284-0.147,0.44-0.213c0.022-0.009,0.044-0.019,0.066-0.028
				c0.15-0.061,0.31-0.116,0.476-0.167c0.036-0.01,0.072-0.023,0.109-0.033c0.162-0.045,0.335-0.083,0.513-0.117
				c0.044-0.008,0.085-0.018,0.13-0.025c0.222-0.037,0.455-0.066,0.704-0.081l0.576,0.001l0.528,0.001h0.036
				c0.136,0.008,0.257,0.029,0.384,0.045c0.12,0.014,0.245,0.024,0.358,0.044c0.116,0.02,0.219,0.05,0.328,0.076
				c0.104,0.024,0.214,0.044,0.313,0.073c0.106,0.031,0.201,0.07,0.3,0.106c0.088,0.032,0.182,0.06,0.265,0.095
				c0.098,0.041,0.184,0.088,0.275,0.133c0.072,0.036,0.15,0.069,0.218,0.108c0.09,0.051,0.169,0.105,0.251,0.159
				c0.057,0.037,0.121,0.072,0.174,0.111c0.089,0.063,0.166,0.13,0.245,0.195c0.038,0.031,0.082,0.062,0.117,0.094
				c0.09,0.079,0.17,0.16,0.248,0.24c0.017,0.019,0.039,0.036,0.055,0.055c0.092,0.099,0.175,0.196,0.249,0.291
				c0.942,1.204,1.099,2.66,0.974,3.343c-0.005,0.028-0.009,0.056-0.014,0.084c-0.016,0.091-0.031,0.184-0.046,0.28
				c-0.054,0.363-0.094,0.737-0.12,1.076c-0.002,0.02-0.003,0.04-0.005,0.059c-0.006,0.084-0.011,0.162-0.015,0.24
				c-0.002,0.037-0.005,0.075-0.007,0.11c-0.003,0.072-0.005,0.134-0.007,0.197c-0.001,0.031-0.002,0.064-0.003,0.093
				c-0.002,0.086-0.001,0.16,0.001,0.222c0,0.001,0,0.003,0,0.004c0.002,0.066,0.006,0.119,0.013,0.153
				c0.001,0.002,0.001,0.006,0.001,0.008v0.002c0.011,0.041,0.025,0.078,0.041,0.115c0.082,0.212,0.136,0.424,0.147,0.7
				c0,0.008,0,0.015,0,0.023c0.002,0.058,0.002,0.12-0.001,0.185c-0.001,0.033-0.004,0.071-0.007,0.107
				c-0.003,0.046-0.006,0.091-0.011,0.14c-0.007,0.06-0.015,0.126-0.025,0.192c-0.005,0.036-0.008,0.068-0.014,0.105
				c-0.017,0.108-0.037,0.224-0.063,0.351c-0.21,1.05-0.524,1.662-0.781,2.01c-0.037,0.05-0.073,0.094-0.107,0.134
				c-0.042,0.318-0.119,0.648-0.208,0.964c-0.015,0.053-0.027,0.109-0.043,0.16c-0.03,0.1-0.063,0.188-0.095,0.282
				c-0.026,0.076-0.051,0.159-0.078,0.229c-0.06,0.157-0.12,0.3-0.177,0.422c-0.042,0.09-0.079,0.188-0.11,0.295
				c-0.006,0.019-0.008,0.042-0.013,0.062c-0.024,0.091-0.047,0.184-0.064,0.289c-0.008,0.048-0.011,0.105-0.017,0.155
				c-0.01,0.084-0.023,0.164-0.029,0.257c-0.01,0.149-0.015,0.309-0.015,0.481c0,0.426,0.012,0.571,0.061,0.635
				c0.002,0.003,0.003,0.011,0.004,0.014c0.003,0.003,0.017,0.011,0.038,0.021c0.018,0.01,0.039,0.018,0.065,0.026
				c0.117,0.035,0.238,0.071,0.362,0.109c0.72,0.221,1.563,0.503,2.388,0.791c0.028,0.01,0.057,0.02,0.085,0.03
				c0.091,0.033,0.182,0.064,0.272,0.097c0.051,0.018,0.101,0.035,0.151,0.053c0.06,0.021,0.117,0.042,0.176,0.063
				c0.081,0.029,0.163,0.058,0.242,0.087c0.024,0.009,0.046,0.017,0.07,0.026c0.112,0.04,0.223,0.08,0.331,0.121
				c0.016,0.006,0.031,0.012,0.047,0.018c0.504,0.186,0.964,0.362,1.335,0.512c0.191,0.077,0.359,0.147,0.498,0.208
				c0.101,0.044,0.192,0.092,0.277,0.143c0.033,0.021,0.063,0.044,0.095,0.066c0.047,0.032,0.093,0.064,0.134,0.099
				c0.035,0.029,0.068,0.061,0.1,0.093c0.03,0.03,0.06,0.059,0.087,0.09c0.033,0.037,0.062,0.076,0.09,0.115
				c0.02,0.029,0.04,0.057,0.058,0.086c0.027,0.044,0.052,0.089,0.074,0.136c0.013,0.028,0.027,0.056,0.039,0.084
				c0.02,0.05,0.039,0.101,0.055,0.154c0.009,0.028,0.018,0.056,0.024,0.084c0.014,0.056,0.025,0.115,0.034,0.174
				c0.004,0.026,0.01,0.053,0.013,0.08c0.01,0.085,0.016,0.172,0.016,0.263c0,0.591,0,2.302,0,2.775c0,0.016,0,0.034,0,0.047
				c0,0.4-0.238,1.082-1.094,1.082c-0.008,0-0.025,0-0.034,0c-0.761,0-5.931,0-8.3,0c-0.718,0-1.181,0-1.181,0h-0.206
				c0,0-0.471,0-1.2,0c-2.372,0-7.516,0-8.294,0c-0.012,0-0.031,0-0.04,0c-0.8,0-1.057-0.591-1.088-0.996l-0.001-0.13l-0.006-2.775
				C68.792,232.376,69.195,231.613,70.094,231.227z"/>
			<path fill="#D52B1E" d="M60.814,230.05c1-0.418,3.361-1.238,4.822-1.669c0.125-0.04,0.144-0.046,0.144-0.565
				c0-0.429-0.177-0.86-0.349-1.226c-0.186-0.397-0.407-1.064-0.486-1.663c-0.222-0.257-0.524-0.766-0.718-1.734
				c-0.17-0.853-0.091-1.163,0.023-1.455c0.011-0.031,0.024-0.061,0.033-0.091c0.043-0.201-0.016-1.24-0.162-2.047
				c-0.101-0.553,0.026-1.729,0.788-2.704c0.481-0.614,1.4-1.37,3.081-1.475h0.921c1.652,0.105,2.573,0.86,3.053,1.475
				c0.762,0.974,0.888,2.151,0.788,2.704c-0.147,0.807-0.204,1.846-0.163,2.042c0.009,0.034,0.021,0.064,0.033,0.095
				c0.112,0.292,0.193,0.602,0.022,1.455c-0.193,0.968-0.495,1.476-0.718,1.734c-0.079,0.599-0.3,1.266-0.487,1.663
				c-0.136,0.29-0.201,0.686-0.201,1.244c0,0.519,0.02,0.525,0.137,0.562c0.497,0.147,1.09,0.339,1.694,0.546
				c-1.347,0.456-2.684,0.94-3.421,1.248c-1.371,0.588-1.985,1.818-1.985,2.778l0.003,1.641c-0.093,0-0.192,0-0.301,0
				c-1.944,0-6.187,0-6.719,0c-0.692,0-0.884-0.552-0.884-0.875c0-0.323,0-1.787,0-2.281
				C59.763,230.958,60.104,230.354,60.814,230.05z"/>
		</g>
	</g>
	<g id="outra_conta_on">
		<g>
			<path fill="#96172E" d="M70.094,281.227c0.971-0.406,3.014-1.125,4.716-1.671c0.215-0.069,0.425-0.136,0.627-0.198
				c0.027-0.008,0.053-0.017,0.08-0.025c0.196-0.061,0.387-0.118,0.564-0.171c0.154-0.048,0.179-0.056,0.179-0.698
				c0-0.132-0.014-0.265-0.037-0.397c-0.015-0.084-0.04-0.167-0.063-0.25c-0.013-0.046-0.021-0.094-0.035-0.14
				c-0.022-0.069-0.049-0.134-0.074-0.202c-0.068-0.183-0.143-0.362-0.222-0.527c-0.057-0.122-0.118-0.266-0.177-0.423
				c-0.019-0.051-0.036-0.11-0.055-0.163c-0.04-0.114-0.081-0.225-0.118-0.348c-0.019-0.062-0.033-0.128-0.051-0.191
				c-0.034-0.121-0.069-0.241-0.097-0.366c-0.029-0.123-0.047-0.247-0.068-0.37c-0.011-0.065-0.027-0.131-0.036-0.196v-0.001h-0.001
				c-0.102-0.119-0.219-0.282-0.338-0.501c-0.014-0.028-0.029-0.061-0.044-0.09c-0.025-0.049-0.05-0.095-0.074-0.149
				c-0.036-0.08-0.073-0.168-0.108-0.26c-0.003-0.007-0.006-0.013-0.009-0.02c-0.036-0.094-0.071-0.195-0.105-0.302
				c-0.003-0.009-0.006-0.015-0.008-0.024c-0.034-0.107-0.067-0.224-0.098-0.346c-0.003-0.009-0.005-0.018-0.008-0.028
				c-0.034-0.133-0.066-0.274-0.096-0.424c-0.025-0.127-0.046-0.244-0.063-0.352c-0.003-0.024-0.005-0.045-0.009-0.068
				c-0.012-0.083-0.023-0.163-0.03-0.236c-0.003-0.025-0.004-0.047-0.006-0.071c-0.005-0.063-0.009-0.125-0.012-0.181
				c-0.001-0.031-0.001-0.061-0.001-0.091c0-0.041,0.001-0.08,0.002-0.117c0.002-0.042,0.004-0.083,0.008-0.122
				c0.002-0.019,0.004-0.038,0.006-0.056c0.006-0.049,0.013-0.097,0.023-0.143c0.001-0.007,0.002-0.014,0.004-0.02
				c0.01-0.048,0.023-0.096,0.036-0.142c0.002-0.008,0.004-0.016,0.007-0.024c0.012-0.039,0.026-0.077,0.04-0.116
				c0.008-0.02,0.014-0.041,0.022-0.061c0.001-0.002,0.002-0.004,0.002-0.007l0.008-0.021c0.011-0.028,0.021-0.057,0.03-0.085
				l0.001-0.004c0.003-0.018,0.004-0.049,0.007-0.073c0.002-0.023,0.005-0.038,0.007-0.067c0.015-0.313-0.022-0.948-0.098-1.591
				c-0.001-0.005-0.001-0.011-0.002-0.017c-0.012-0.1-0.025-0.198-0.039-0.297c-0.005-0.035-0.009-0.07-0.014-0.105
				c-0.017-0.111-0.034-0.218-0.053-0.323c-0.003-0.018-0.006-0.036-0.009-0.054c-0.015-0.086-0.026-0.184-0.033-0.293
				c-0.025-0.46,0.055-1.103,0.303-1.773c0.159-0.428,0.383-0.867,0.704-1.278c0.003-0.004,0.007-0.007,0.009-0.011
				c0.089-0.113,0.184-0.219,0.282-0.321c0.055-0.057,0.115-0.114,0.176-0.17c0.046-0.044,0.093-0.086,0.14-0.127
				c0.085-0.073,0.176-0.145,0.273-0.216c0.026-0.019,0.052-0.037,0.078-0.056c0.115-0.08,0.237-0.158,0.368-0.233
				c0.017-0.009,0.033-0.018,0.05-0.028c0.137-0.075,0.284-0.147,0.44-0.213c0.022-0.009,0.044-0.019,0.066-0.028
				c0.15-0.061,0.31-0.116,0.476-0.167c0.036-0.01,0.072-0.023,0.109-0.033c0.162-0.045,0.335-0.083,0.513-0.117
				c0.044-0.008,0.085-0.018,0.13-0.025c0.222-0.037,0.455-0.066,0.704-0.081l0.576,0.001l0.528,0.001h0.036
				c0.136,0.008,0.257,0.029,0.384,0.045c0.12,0.014,0.245,0.024,0.358,0.043c0.116,0.02,0.219,0.05,0.328,0.076
				c0.104,0.024,0.214,0.044,0.313,0.073c0.106,0.031,0.201,0.07,0.3,0.106c0.088,0.032,0.182,0.06,0.265,0.095
				c0.098,0.041,0.184,0.088,0.275,0.133c0.072,0.036,0.15,0.069,0.218,0.108c0.09,0.051,0.169,0.105,0.251,0.159
				c0.057,0.037,0.121,0.072,0.174,0.111c0.089,0.063,0.166,0.13,0.245,0.195c0.038,0.031,0.082,0.062,0.117,0.094
				c0.09,0.079,0.17,0.16,0.248,0.24c0.017,0.019,0.039,0.036,0.055,0.055c0.092,0.099,0.175,0.196,0.249,0.291
				c0.942,1.204,1.099,2.66,0.974,3.344c-0.005,0.028-0.009,0.056-0.014,0.084c-0.016,0.091-0.031,0.184-0.046,0.28
				c-0.054,0.363-0.094,0.737-0.12,1.076c-0.002,0.02-0.003,0.04-0.005,0.059c-0.006,0.084-0.011,0.162-0.015,0.24
				c-0.002,0.037-0.005,0.075-0.007,0.11c-0.003,0.072-0.005,0.134-0.007,0.197c-0.001,0.031-0.002,0.064-0.003,0.093
				c-0.002,0.086-0.001,0.16,0.001,0.222c0,0.001,0,0.003,0,0.004c0.002,0.066,0.006,0.119,0.013,0.153
				c0.001,0.002,0.001,0.006,0.001,0.008v0.002c0.011,0.041,0.025,0.078,0.041,0.115c0.082,0.212,0.136,0.424,0.147,0.7
				c0,0.008,0,0.015,0,0.023c0.002,0.058,0.002,0.12-0.001,0.185c-0.001,0.033-0.004,0.071-0.007,0.107
				c-0.003,0.046-0.006,0.091-0.011,0.14c-0.007,0.06-0.015,0.126-0.025,0.192c-0.005,0.036-0.008,0.068-0.014,0.105
				c-0.017,0.108-0.037,0.224-0.063,0.35c-0.21,1.05-0.524,1.662-0.781,2.01c-0.037,0.05-0.073,0.094-0.107,0.134
				c-0.042,0.318-0.119,0.648-0.208,0.964c-0.015,0.053-0.027,0.109-0.043,0.16c-0.03,0.1-0.063,0.189-0.095,0.282
				c-0.026,0.076-0.051,0.159-0.078,0.229c-0.06,0.157-0.12,0.3-0.177,0.422c-0.042,0.09-0.079,0.188-0.11,0.295
				c-0.006,0.019-0.008,0.042-0.013,0.062c-0.024,0.091-0.047,0.184-0.064,0.289c-0.008,0.048-0.011,0.105-0.017,0.155
				c-0.01,0.084-0.023,0.164-0.029,0.257c-0.01,0.149-0.015,0.309-0.015,0.481c0,0.426,0.012,0.571,0.061,0.635
				c0.002,0.003,0.003,0.011,0.004,0.014c0.003,0.003,0.017,0.011,0.038,0.021c0.018,0.01,0.039,0.018,0.065,0.026
				c0.117,0.035,0.238,0.071,0.362,0.109c0.72,0.221,1.563,0.503,2.388,0.791c0.028,0.01,0.057,0.02,0.085,0.03
				c0.091,0.033,0.182,0.065,0.272,0.097c0.051,0.018,0.101,0.035,0.151,0.053c0.06,0.022,0.117,0.042,0.176,0.063
				c0.081,0.029,0.163,0.058,0.242,0.087c0.024,0.009,0.046,0.017,0.07,0.026c0.112,0.04,0.223,0.08,0.331,0.121
				c0.016,0.006,0.031,0.012,0.047,0.018c0.504,0.186,0.964,0.362,1.335,0.512c0.191,0.077,0.359,0.147,0.498,0.208
				c0.101,0.043,0.192,0.092,0.277,0.143c0.033,0.021,0.063,0.044,0.095,0.066c0.047,0.032,0.093,0.064,0.134,0.099
				c0.035,0.029,0.068,0.061,0.1,0.093c0.03,0.03,0.06,0.059,0.087,0.09c0.033,0.037,0.062,0.076,0.09,0.115
				c0.02,0.029,0.04,0.057,0.058,0.086c0.027,0.044,0.052,0.089,0.074,0.136c0.013,0.028,0.027,0.056,0.039,0.084
				c0.02,0.05,0.039,0.101,0.055,0.154c0.009,0.028,0.018,0.056,0.024,0.084c0.014,0.056,0.025,0.115,0.034,0.174
				c0.004,0.026,0.01,0.053,0.013,0.08c0.01,0.085,0.016,0.172,0.016,0.263c0,0.591,0,2.302,0,2.775c0,0.016,0,0.034,0,0.047
				c0,0.4-0.238,1.082-1.094,1.082c-0.008,0-0.025,0-0.034,0c-0.761,0-5.931,0-8.3,0c-0.718,0-1.181,0-1.181,0h-0.206
				c0,0-0.471,0-1.2,0c-2.372,0-7.516,0-8.294,0c-0.012,0-0.031,0-0.04,0c-0.8,0-1.057-0.591-1.088-0.996l-0.001-0.13l-0.006-2.775
				C68.792,282.376,69.195,281.613,70.094,281.227z"/>
			<path fill="#96172E" d="M60.814,280.05c1-0.418,3.361-1.238,4.822-1.669c0.125-0.04,0.144-0.046,0.144-0.565
				c0-0.429-0.177-0.86-0.349-1.226c-0.186-0.397-0.407-1.064-0.486-1.663c-0.222-0.257-0.524-0.766-0.718-1.734
				c-0.17-0.853-0.091-1.163,0.023-1.455c0.011-0.031,0.024-0.061,0.033-0.091c0.043-0.201-0.016-1.24-0.162-2.047
				c-0.101-0.553,0.026-1.729,0.788-2.704c0.481-0.614,1.4-1.37,3.081-1.475h0.921c1.652,0.105,2.573,0.86,3.053,1.475
				c0.762,0.974,0.888,2.151,0.788,2.704c-0.147,0.807-0.204,1.846-0.163,2.042c0.009,0.034,0.021,0.064,0.033,0.095
				c0.112,0.292,0.193,0.602,0.022,1.455c-0.193,0.968-0.495,1.476-0.718,1.734c-0.079,0.599-0.3,1.266-0.487,1.663
				c-0.136,0.29-0.201,0.686-0.201,1.244c0,0.519,0.02,0.525,0.137,0.562c0.497,0.147,1.09,0.34,1.694,0.546
				c-1.347,0.456-2.684,0.94-3.421,1.248c-1.371,0.588-1.985,1.818-1.985,2.778l0.003,1.641c-0.093,0-0.192,0-0.301,0
				c-1.944,0-6.187,0-6.719,0c-0.692,0-0.884-0.552-0.884-0.875c0-0.323,0-1.787,0-2.281
				C59.763,280.958,60.104,280.354,60.814,280.05z"/>
		</g>
	</g>
	<g id="criar_grupo">
		<g>
			<g>
				<path fill="#D52B1E" d="M82.32,313.544H67.681c-0.809,0-1.464,0.642-1.464,1.432v0.716h15.37v20.765h0.732
					c0.809,0,1.463-0.641,1.463-1.432v-20.048C83.783,314.185,83.129,313.544,82.32,313.544z"/>
			</g>
			<path fill="#D52B1E" d="M76.401,318.126H66.153l-5.856,5.728v15.752c0,0.79,0.655,1.432,1.464,1.432h14.639
				c0.809,0,1.463-0.642,1.463-1.432v-20.048C77.864,318.767,77.21,318.126,76.401,318.126z M66.831,324.554h-4.337l4.337-4.28
				V324.554z"/>
			<g>
				<path fill="#D52B1E" d="M88.239,308.961H73.6c-0.809,0-1.464,0.642-1.464,1.432v0.716h15.37v20.765h0.732
					c0.809,0,1.463-0.641,1.463-1.432v-20.048C89.702,309.603,89.048,308.961,88.239,308.961z"/>
			</g>
		</g>
	</g>
	<g id="criar_grupo_on">
		<g>
			<g>
				<path fill="#96172E" d="M82.32,363.544H67.681c-0.809,0-1.464,0.642-1.464,1.432v0.716h15.37v20.765h0.732
					c0.809,0,1.463-0.641,1.463-1.432v-20.048C83.783,364.185,83.129,363.544,82.32,363.544z"/>
			</g>
			<path fill="#96172E" d="M76.401,368.126H66.153l-5.856,5.728v15.752c0,0.79,0.655,1.432,1.464,1.432h14.639
				c0.809,0,1.463-0.642,1.463-1.432v-20.048C77.864,368.767,77.21,368.126,76.401,368.126z M66.831,374.554h-4.337l4.337-4.28
				V374.554z"/>
			<g>
				<path fill="#96172E" d="M88.239,358.961H73.6c-0.809,0-1.464,0.642-1.464,1.432v0.716h15.37v20.765h0.732
					c0.809,0,1.463-0.641,1.463-1.432v-20.048C89.702,359.603,89.048,358.961,88.239,358.961z"/>
			</g>
		</g>
	</g>
	<g id="inativos_on">
		<g>
			<g>
				<path fill="none" stroke="#FFFFFF" stroke-width="2.7" stroke-linejoin="round" stroke-miterlimit="10" d="M71.269,486.743
					c0,0,1.972,1.848,3.766,1.848c1.795,0,3.695-1.848,3.695-1.848v-0.002h-7.462V486.743z"/>
				<path fill="none" stroke="#FFFFFF" stroke-width="2.7" stroke-linejoin="round" stroke-miterlimit="10" d="M83.977,470.891
					c-0.248-4.744-4.172-8.514-8.977-8.514c-4.805,0-8.729,3.77-8.977,8.514h-0.001c0.001,0.921,0.001,0.94,0.002,0.96
					c0.003,0.048,0.007,0.096,0.011,0.145c0.008,0.112,0.016,0.224,0.028,0.335c0.006,0.054,0.013,0.107,0.02,0.16
					c0.013,0.106,0.028,0.212,0.045,0.317c0.008,0.052,0.018,0.103,0.027,0.154c0.019,0.108,0.04,0.215,0.064,0.322
					c0.01,0.046,0.02,0.091,0.031,0.136c0.027,0.115,0.056,0.229,0.088,0.342c0.01,0.035,0.019,0.071,0.029,0.106
					c0.038,0.131,0.079,0.26,0.122,0.389c0.006,0.017,0.011,0.034,0.017,0.05c0.105,0.302,0.224,0.598,0.359,0.885v0.048
					c0,0,0.03,0.042,0.082,0.119c0.006,0.012,0.013,0.024,0.019,0.036c0.047,0.093,0.094,0.184,0.144,0.275
					c0.011,0.02,0.022,0.04,0.033,0.06c0.053,0.095,0.106,0.188,0.162,0.281c0.005,0.008,0.009,0.015,0.014,0.023
					c0.128,0.211,0.264,0.417,0.408,0.615c1.167,1.957,2.406,4.351,2.406,6.195c0,1.457,1.137,1.815,1.137,1.815h7.462
					c0,0,1.137-0.358,1.137-1.815c0-1.844,1.239-4.238,2.406-6.195c0.145-0.199,0.28-0.405,0.408-0.615
					c0.005-0.008,0.01-0.015,0.014-0.023c0.056-0.092,0.11-0.186,0.162-0.281c0.011-0.02,0.022-0.04,0.033-0.06
					c0.05-0.091,0.097-0.183,0.144-0.275c0.006-0.012,0.013-0.024,0.019-0.036c0.052-0.077,0.082-0.119,0.082-0.119v-0.048
					c0.135-0.287,0.254-0.582,0.359-0.885c0.006-0.017,0.011-0.034,0.017-0.05c0.044-0.128,0.085-0.258,0.122-0.389
					c0.01-0.035,0.02-0.07,0.029-0.106c0.031-0.113,0.061-0.227,0.088-0.342c0.011-0.045,0.021-0.091,0.031-0.136
					c0.023-0.107,0.044-0.214,0.064-0.322c0.009-0.051,0.019-0.102,0.027-0.154c0.017-0.105,0.031-0.211,0.045-0.317
					c0.007-0.053,0.014-0.107,0.02-0.16c0.012-0.111,0.02-0.223,0.028-0.335c0.003-0.048,0.008-0.096,0.011-0.145
					C83.977,471.831,83.977,471.812,83.977,470.891L83.977,470.891z"/>
				
					<rect x="71.269" y="484.56" fill="none" stroke="#FFFFFF" stroke-width="2.7" stroke-linejoin="round" stroke-miterlimit="10" width="7.462" height="1.279"/>
			</g>
			
				<line fill="none" stroke="#FFFFFF" stroke-width="4.263" stroke-linecap="round" stroke-miterlimit="10" x1="87.139" y1="461.41" x2="62.861" y2="485.687"/>
		</g>
	</g>
	<g id="inativos">
		<g>
			<g>
				<path fill="none" stroke="#D52B1E" stroke-width="2.7" stroke-linejoin="round" stroke-miterlimit="10" d="M71.269,436.743
					c0,0,1.972,1.848,3.766,1.848c1.795,0,3.695-1.848,3.695-1.848v-0.002h-7.462V436.743z"/>
				<path fill="none" stroke="#D52B1E" stroke-width="2.7" stroke-linejoin="round" stroke-miterlimit="10" d="M83.977,420.891
					c-0.248-4.744-4.172-8.514-8.977-8.514c-4.805,0-8.729,3.77-8.977,8.514h-0.001c0.001,0.921,0.001,0.94,0.002,0.96
					c0.003,0.048,0.007,0.096,0.011,0.145c0.008,0.112,0.016,0.224,0.028,0.335c0.006,0.054,0.013,0.107,0.02,0.16
					c0.013,0.106,0.028,0.212,0.045,0.317c0.008,0.052,0.018,0.103,0.027,0.154c0.019,0.108,0.04,0.215,0.064,0.322
					c0.01,0.046,0.02,0.091,0.031,0.136c0.027,0.115,0.056,0.229,0.088,0.342c0.01,0.035,0.019,0.071,0.029,0.106
					c0.038,0.131,0.079,0.26,0.122,0.389c0.006,0.017,0.011,0.034,0.017,0.05c0.105,0.302,0.224,0.598,0.359,0.885v0.048
					c0,0,0.03,0.042,0.082,0.119c0.006,0.012,0.013,0.024,0.019,0.036c0.047,0.093,0.094,0.184,0.144,0.275
					c0.011,0.02,0.022,0.04,0.033,0.06c0.053,0.095,0.106,0.188,0.162,0.281c0.005,0.008,0.009,0.015,0.014,0.023
					c0.128,0.211,0.264,0.417,0.408,0.615c1.167,1.957,2.406,4.351,2.406,6.195c0,1.457,1.137,1.815,1.137,1.815h7.462
					c0,0,1.137-0.358,1.137-1.815c0-1.844,1.239-4.238,2.406-6.195c0.145-0.199,0.28-0.405,0.408-0.615
					c0.005-0.008,0.01-0.015,0.014-0.023c0.056-0.092,0.11-0.186,0.162-0.281c0.011-0.02,0.022-0.04,0.033-0.06
					c0.05-0.091,0.097-0.183,0.144-0.275c0.006-0.012,0.013-0.024,0.019-0.036c0.052-0.077,0.082-0.119,0.082-0.119v-0.048
					c0.135-0.287,0.254-0.582,0.359-0.885c0.006-0.017,0.011-0.034,0.017-0.05c0.044-0.128,0.085-0.258,0.122-0.389
					c0.01-0.035,0.02-0.07,0.029-0.106c0.031-0.113,0.061-0.227,0.088-0.342c0.011-0.045,0.021-0.091,0.031-0.136
					c0.023-0.107,0.044-0.214,0.064-0.322c0.009-0.051,0.019-0.102,0.027-0.154c0.017-0.105,0.031-0.211,0.045-0.317
					c0.007-0.053,0.014-0.107,0.02-0.16c0.012-0.111,0.02-0.223,0.028-0.335c0.003-0.048,0.008-0.096,0.011-0.145
					C83.977,421.831,83.977,421.812,83.977,420.891L83.977,420.891z"/>
				
					<rect x="71.269" y="434.56" fill="none" stroke="#D52B1E" stroke-width="2.7" stroke-linejoin="round" stroke-miterlimit="10" width="7.462" height="1.279"/>
			</g>
			
				<line fill="none" stroke="#D52B1E" stroke-width="4.263" stroke-linecap="round" stroke-miterlimit="10" x1="87.139" y1="411.41" x2="62.861" y2="435.687"/>
		</g>
	</g>
	<g id="oculto_white">
		<g>
			<g>
				<g>
					<path fill="#FFFFFF" d="M90.575,524.305c-0.233-0.346-5.821-8.477-15.575-8.477c-9.754,0-15.342,8.131-15.575,8.477
						c-0.283,0.42-0.283,0.969,0,1.389c0.233,0.346,5.821,8.478,15.575,8.478c9.754,0,15.342-8.132,15.575-8.478
						C90.858,525.275,90.858,524.725,90.575,524.305z M75,531.686c-6.851,0-11.476-4.852-12.981-6.688
						c1.5-1.839,6.104-6.683,12.981-6.683c6.851,0,11.476,4.852,12.981,6.688C86.481,526.841,81.877,531.686,75,531.686z"/>
					<path fill="#FFFFFF" d="M74.997,520.21c-1.045,0-2.039,0.332-2.876,0.961c-2.11,1.588-2.536,4.597-0.949,6.708
						c0.914,1.215,2.31,1.911,3.832,1.911c1.045,0,2.039-0.332,2.876-0.961c1.023-0.769,1.684-1.89,1.864-3.157
						c0.179-1.267-0.145-2.528-0.914-3.551C77.915,520.906,76.519,520.21,74.997,520.21z"/>
				</g>
			</g>
			
				<line fill="none" stroke="#FFFFFF" stroke-width="4.263" stroke-linecap="round" stroke-miterlimit="10" x1="87.139" y1="512.861" x2="62.861" y2="537.139"/>
		</g>
	</g>
	<g id="download">
		<g>
			<path fill="#D52B1E" d="M85.775,563.654H73.701c-0.571,0-1.036,0.463-1.036,1.034c0,0.573,0.463,1.034,1.036,1.034h12.073
				c1.425,0,2.586,1.161,2.586,2.583v13.387c0,1.425-1.16,2.582-2.586,2.582H64.222c-1.424,0-2.583-1.158-2.583-2.582v-5.441
				c0-0.571-0.461-1.034-1.034-1.034c-0.571,0-1.034,0.463-1.034,1.034v5.441c0,2.566,2.086,4.654,4.651,4.654h21.553
				c2.566,0,4.655-2.088,4.655-4.654v-13.388C90.428,565.741,88.341,563.654,85.775,563.654z"/>
			<path fill="#D52B1E" d="M71.681,568.835c-0.194,0-0.389,0.055-0.564,0.168c-0.479,0.313-0.614,0.952-0.303,1.43l2.66,4.086
				c-8.403-1.045-11.864-10.09-11.896-10.184c-0.154-0.42-0.552-0.68-0.974-0.68c-0.116,0-0.233,0.019-0.35,0.061
				c-0.535,0.194-0.814,0.785-0.622,1.32c0.157,0.434,3.769,10.135,13.116,11.543l-3.749,2.438c-0.481,0.313-0.614,0.952-0.305,1.43
				c0.314,0.481,0.958,0.611,1.431,0.304l6.07-3.945c0.229-0.15,0.391-0.384,0.449-0.651c0.056-0.269,0.004-0.55-0.147-0.779
				l-3.95-6.067C72.35,569,72.019,568.835,71.681,568.835z"/>
		</g>
	</g>
	<g id="download_on">
		<g>
			<path fill="#96172E" d="M85.775,613.654H73.701c-0.571,0-1.036,0.463-1.036,1.034c0,0.573,0.463,1.034,1.036,1.034h12.073
				c1.425,0,2.586,1.161,2.586,2.583v13.387c0,1.425-1.16,2.582-2.586,2.582H64.222c-1.424,0-2.583-1.158-2.583-2.582v-5.441
				c0-0.571-0.461-1.034-1.034-1.034c-0.571,0-1.034,0.463-1.034,1.034v5.441c0,2.566,2.086,4.654,4.651,4.654h21.553
				c2.566,0,4.655-2.088,4.655-4.654v-13.388C90.428,615.741,88.341,613.654,85.775,613.654z"/>
			<path fill="#96172E" d="M71.681,618.835c-0.194,0-0.389,0.055-0.564,0.168c-0.479,0.313-0.614,0.952-0.303,1.43l2.66,4.086
				c-8.403-1.045-11.864-10.09-11.896-10.184c-0.154-0.42-0.552-0.68-0.974-0.68c-0.116,0-0.233,0.019-0.35,0.061
				c-0.535,0.194-0.814,0.785-0.622,1.32c0.157,0.434,3.769,10.135,13.116,11.543l-3.749,2.438c-0.481,0.313-0.614,0.952-0.305,1.43
				c0.314,0.481,0.958,0.611,1.431,0.304l6.07-3.945c0.229-0.15,0.391-0.384,0.449-0.651c0.056-0.269,0.004-0.55-0.147-0.779
				l-3.95-6.067C72.35,619,72.019,618.835,71.681,618.835z"/>
		</g>
	</g>
	<g id="SMS_MB">
		<g>
			<path fill="#D52B1E" d="M77.578,676.535v5.745H64.103v-17.062c0-0.202,0.164-0.367,0.367-0.367h2.705v-1.555h-3.224
				c-0.775,0-1.404,0.629-1.404,1.404v23.429c0,0.776,0.629,1.404,1.404,1.404h13.778c0.775,0,1.404-0.628,1.404-1.404v-11.594
				H77.578z M72.395,686.899h-3.11v-2.032h3.11V686.899z"/>
			<path fill="#D52B1E" d="M69.312,678.607l3.628-4.146h14.512v-13.994h-18.14V678.607z M82.96,665.65
				c0.811,0,1.468,0.657,1.468,1.468s-0.657,1.468-1.468,1.468c-0.811,0-1.468-0.657-1.468-1.468S82.149,665.65,82.96,665.65z
				 M78.382,665.65c0.811,0,1.468,0.657,1.468,1.468s-0.657,1.468-1.468,1.468s-1.468-0.657-1.468-1.468S77.571,665.65,78.382,665.65
				z M73.804,665.65c0.811,0,1.468,0.657,1.468,1.468s-0.657,1.468-1.468,1.468c-0.811,0-1.468-0.657-1.468-1.468
				S72.993,665.65,73.804,665.65z"/>
		</g>
	</g>
	<g id="SMS_MB_on">
		<g>
			<path fill="#96172E" d="M77.578,726.535v5.745H64.103v-17.062c0-0.202,0.164-0.367,0.367-0.367h2.705v-1.555h-3.224
				c-0.775,0-1.404,0.629-1.404,1.404v23.429c0,0.776,0.629,1.404,1.404,1.404h13.778c0.775,0,1.404-0.628,1.404-1.404v-11.594
				H77.578z M72.395,736.899h-3.11v-2.032h3.11V736.899z"/>
			<path fill="#96172E" d="M69.312,728.607l3.628-4.146h14.512v-13.994h-18.14V728.607z M82.96,715.65
				c0.811,0,1.468,0.657,1.468,1.468s-0.657,1.468-1.468,1.468c-0.811,0-1.468-0.657-1.468-1.468S82.149,715.65,82.96,715.65z
				 M78.382,715.65c0.811,0,1.468,0.657,1.468,1.468s-0.657,1.468-1.468,1.468s-1.468-0.657-1.468-1.468S77.571,715.65,78.382,715.65
				z M73.804,715.65c0.811,0,1.468,0.657,1.468,1.468s-0.657,1.468-1.468,1.468c-0.811,0-1.468-0.657-1.468-1.468
				S72.993,715.65,73.804,715.65z"/>
		</g>
	</g>
	<g id="sucesso">
		<path fill="#00AF3F" d="M81.074,765H68.926c-2.159,0-3.926,1.767-3.926,3.926v12.149c0,2.159,1.767,3.926,3.926,3.926h12.149
			c2.159,0,3.926-1.766,3.926-3.926v-12.149C85,766.767,83.233,765,81.074,765z M80.873,773.089
			c-0.397,0.397-6.505,6.505-6.505,6.505c-0.182,0.182-0.405,0.274-0.67,0.273c-0.003,0-0.016,0-0.019,0
			c-0.264,0-0.487-0.091-0.669-0.274l-3.018-3.018c-0.034-0.034-0.066-0.071-0.098-0.112c-0.244-0.236-0.398-0.566-0.398-0.933
			c0-0.718,0.582-1.3,1.3-1.3c0.363,0,0.691,0.15,0.927,0.39c0.072,0.058,0.138,0.118,0.196,0.176l1.769,1.769l5.208-5.208
			c0.072-0.072,0.154-0.135,0.241-0.194c0.226-0.192,0.515-0.311,0.835-0.311c0.647,0,1.18,0.474,1.28,1.094
			C81.321,772.181,81.27,772.691,80.873,773.089z"/>
	</g>
	<g id="alerta">
		<path fill="#FFBA00" d="M85.798,828.739l-7.405-12.774C77.71,814.79,76.439,814,74.983,814c-1.446,0-2.709,0.779-3.395,1.94
			l-7.597,13.124c-0.344,0.585-0.542,1.267-0.542,1.995c0,2.177,1.765,3.942,3.942,3.942h15.22c2.177,0,3.942-1.765,3.942-3.942
			C86.552,830.191,86.272,829.39,85.798,828.739z M75.009,820.139c1.251,0,1.642,0.891,1.551,1.521l-0.358,4.859
			c0,0.335-0.118,0.623-0.354,0.865c-0.237,0.242-0.516,0.363-0.839,0.363c-0.335,0-0.623-0.121-0.865-0.363s-0.363-0.53-0.363-0.865
			l-0.374-4.889C73.273,821.053,73.887,820.139,75.009,820.139z M76.202,832.227c-0.335,0.335-0.733,0.502-1.194,0.502
			c-0.473,0-0.877-0.167-1.211-0.502c-0.335-0.334-0.502-0.738-0.502-1.211c0-0.473,0.167-0.877,0.502-1.211
			c0.334-0.334,0.738-0.502,1.211-0.502c0.461,0,0.859,0.167,1.194,0.502c0.334,0.335,0.502,0.738,0.502,1.211
			C76.704,831.489,76.537,831.892,76.202,832.227z"/>
	</g>
	<g id="erro">
		<g>
			<path fill="#FF3333" d="M86.266,876.505c0.25-0.439,0.395-0.947,0.395-1.489c0-0.542-0.145-1.049-0.395-1.488l-4.214-7.298
				c-0.483-1.021-1.519-1.73-2.724-1.73c-0.096,0-8.551,0-8.646,0c-1.098,0-2.059,0.587-2.586,1.464
				c-0.02,0.034-4.34,7.521-4.34,7.521l0,0c-0.265,0.449-0.417,0.972-0.417,1.531c0,0.57,0.158,1.103,0.433,1.558l0,0.001
				l4.304,7.421c0.52,0.896,1.487,1.5,2.596,1.503h8.646c0.003,0,0.007,0,0.01,0c1.131,0,2.115-0.624,2.631-1.545l0.006-0.001
				L86.266,876.505z"/>
			<g>
				<g>
					<path fill="#FFFFFF" d="M69.811,872.918c0-0.473,0.166-0.879,0.499-1.218c0.332-0.339,0.735-0.508,1.209-0.508
						c0.486,0,0.898,0.17,1.237,0.508c0.339,0.339,0.508,0.745,0.508,1.218c0,0.486-0.169,0.898-0.508,1.237
						c-0.339,0.339-0.751,0.508-1.237,0.508c-0.473,0-0.876-0.169-1.209-0.508C69.977,873.817,69.811,873.404,69.811,872.918z"/>
					<path fill="#FFFFFF" d="M76.737,872.918c0-0.473,0.166-0.879,0.499-1.218c0.332-0.339,0.735-0.508,1.209-0.508
						c0.486,0,0.898,0.17,1.237,0.508c0.339,0.339,0.508,0.745,0.508,1.218c0,0.486-0.169,0.898-0.508,1.237
						c-0.339,0.339-0.751,0.508-1.237,0.508c-0.473,0-0.876-0.169-1.209-0.508C76.903,873.817,76.737,873.404,76.737,872.918z"/>
				</g>
				<polygon fill="#FFFFFF" points="79.498,877.761 70.981,880.178 70.502,878.667 79.019,876.25 			"/>
			</g>
		</g>
	</g>
	<g id="analise">
		<circle fill="#999999" cx="75" cy="925" r="12.378"/>
		<g>
			<path fill="#FFFFFF" d="M73.125,922.005c0.165,0.885,0.623,1.844,1.321,2.352h1.092c0.699-0.508,1.157-1.467,1.321-2.352H73.125z"
				/>
			<path fill="#FFFFFF" d="M79.889,920.812h1.565c0.187,0,0.339-0.153,0.339-0.339v-1.285c0-0.187-0.153-0.339-0.339-0.339H68.546
				c-0.187,0-0.339,0.153-0.339,0.339v1.285c0,0.187,0.153,0.339,0.339,0.339h1.549v1.119l1.679,3.126l-1.665,3.045h-0.003v1.087
				h-1.561c-0.187,0-0.339,0.153-0.339,0.339v1.285c0,0.187,0.153,0.339,0.339,0.339h12.908c0.187,0,0.339-0.153,0.339-0.339v-1.285
				c0-0.187-0.153-0.339-0.339-0.339h-1.576v-1.087h-0.003l-1.665-3.045l1.679-3.126V920.812z M78.572,921.793l-1.752,3.265
				l1.74,3.183v0.948h-7.136v-0.948l1.74-3.183l-1.752-3.265v-0.982h7.159V921.793z"/>
		</g>
	</g>
	<g id="submetido">
		<g>
			<g>
				<g>
					<path fill="none" stroke="#999999" stroke-width="2" stroke-linecap="round" stroke-miterlimit="10" d="M75.018,986.534
						c-0.168,0-0.334-0.004-0.5-0.011"/>
					
						<path fill="none" stroke="#999999" stroke-width="2" stroke-linecap="round" stroke-miterlimit="10" stroke-dasharray="1.036,4.144" d="
						M70.495,985.613c-4.122-1.759-7.011-5.849-7.011-10.613c0-5.495,3.843-10.093,8.988-11.252"/>
					<path fill="none" stroke="#999999" stroke-width="2" stroke-linecap="round" stroke-miterlimit="10" d="M74.518,963.477
						c0.166-0.007,0.332-0.011,0.5-0.011"/>
				</g>
			</g>
			<path fill="none" stroke="#999999" stroke-width="2" stroke-miterlimit="10" d="M74.982,963.466
				c6.37,0,11.534,5.164,11.534,11.534s-5.164,11.534-11.534,11.534"/>
			<path fill="#999999" d="M81.128,975.563c-0.04-0.19-0.135-0.369-0.281-0.516c-0.405-0.404-1.059-0.402-1.462,0.002l-3.35,3.359
				l-0.005-9.315c0-0.574-0.465-1.033-1.034-1.034c-0.575,0.002-1.034,0.472-1.034,1.035l0.004,9.15l-0.19-0.025l-3.166-3.159
				c-0.406-0.405-1.059-0.402-1.462,0c-0.405,0.408-0.398,1.065,0.001,1.463l5.123,5.116c0.195,0.193,0.457,0.302,0.73,0.303
				c0.275-0.001,0.539-0.111,0.732-0.307l5.111-5.127C81.106,976.251,81.199,975.893,81.128,975.563z"/>
		</g>
	</g>
	<g id="oculto_disabled">
		<g>
			<g>
				<path fill="#999999" d="M90.575,1024.305c-0.233-0.346-5.821-8.477-15.575-8.477c-9.754,0-15.342,8.131-15.575,8.477
					c-0.283,0.42-0.283,0.969,0,1.389c0.233,0.346,5.821,8.478,15.575,8.478c9.754,0,15.342-8.132,15.575-8.478
					C90.858,1025.275,90.858,1024.725,90.575,1024.305z M75,1031.686c-6.851,0-11.476-4.852-12.981-6.688
					c1.5-1.839,6.104-6.684,12.981-6.684c6.851,0,11.476,4.852,12.981,6.688C86.481,1026.841,81.877,1031.686,75,1031.686z"/>
				<path fill="#999999" d="M74.997,1020.21c-1.045,0-2.039,0.332-2.876,0.961c-2.11,1.588-2.536,4.597-0.949,6.707
					c0.914,1.215,2.31,1.911,3.832,1.911c1.045,0,2.039-0.332,2.876-0.961c1.023-0.769,1.684-1.89,1.864-3.157
					c0.179-1.267-0.145-2.528-0.914-3.551C77.915,1020.906,76.519,1020.21,74.997,1020.21z"/>
			</g>
		</g>
		
			<line fill="none" stroke="#999999" stroke-width="4.263" stroke-linecap="round" stroke-miterlimit="10" x1="87.139" y1="1012.861" x2="62.861" y2="1037.139"/>
	</g>
	<g id="visivel_disabled">
		<g>
			<g>
				<path fill="#999999" d="M90.575,1074.305c-0.233-0.346-5.821-8.477-15.575-8.477c-9.754,0-15.342,8.131-15.575,8.477
					c-0.283,0.42-0.283,0.969,0,1.389c0.233,0.346,5.821,8.478,15.575,8.478c9.754,0,15.342-8.132,15.575-8.478
					C90.858,1075.275,90.858,1074.725,90.575,1074.305z M75,1081.686c-6.851,0-11.476-4.852-12.981-6.688
					c1.5-1.839,6.104-6.683,12.981-6.683c6.851,0,11.476,4.852,12.981,6.688C86.481,1076.841,81.877,1081.686,75,1081.686z"/>
				<path fill="#999999" d="M74.997,1070.21c-1.045,0-2.039,0.332-2.876,0.961c-2.11,1.588-2.536,4.597-0.949,6.708
					c0.914,1.215,2.31,1.911,3.832,1.911c1.045,0,2.039-0.332,2.876-0.961c1.023-0.769,1.684-1.89,1.864-3.157
					c0.179-1.267-0.145-2.528-0.914-3.551C77.915,1070.906,76.519,1070.21,74.997,1070.21z"/>
			</g>
		</g>
	</g>
</svg>
